<svg width="345" height="274" viewBox="0 0 345 274" fill="none" xmlns="http://www.w3.org/2000/svg">
<path opacity="0.04" d="M68.8231 207.095C44.4203 252.965 212.607 257.62 248.706 240.99C284.805 224.361 292.544 161.007 279.917 140.645C275.978 134.333 328.551 177.906 326.229 170.664C321.175 154.82 328.397 83.769 319.517 70.169C311.842 58.3969 237.935 79.6069 227.898 70.169C223.503 66.0854 177.893 8.08279 123.526 16.8084C83.8077 23.183 31.9088 58.9656 21.1674 87.9559C10.426 116.946 113.458 123.194 68.8231 207.095Z" fill="#276ED8"/>
<path opacity="0.2" d="M146.239 112.507L154.377 110.977V103.681L146.239 102.278C145.614 99.2807 144.428 96.4748 142.796 93.9876L147.464 87.1385L142.298 81.9729L135.551 86.7431C133.064 85.1105 130.271 83.9371 127.261 83.3121L125.73 75.1748H118.435L117.032 83.3121C114.034 83.9371 111.228 85.1233 108.741 86.7559L101.905 82.0877L96.7393 87.2533L101.509 94.0004C99.8769 96.4875 98.7035 99.2935 98.0785 102.291L89.9412 103.821V111.117L98.0785 112.52C98.7035 115.53 99.8896 118.323 101.522 120.81L96.8541 127.647L102.02 132.812L108.78 128.042C111.267 129.675 114.073 130.861 117.07 131.473L118.6 139.61H125.896L127.299 131.473C130.309 130.848 133.102 129.662 135.589 128.029L142.426 132.697L147.591 127.532L142.821 120.785C144.441 118.31 145.614 115.517 146.239 112.507ZM122.159 122.507C113.817 122.507 107.058 115.734 107.058 107.405C107.058 99.0767 113.817 92.304 122.159 92.304C130.5 92.304 137.26 99.0639 137.26 107.405C137.26 115.747 130.5 122.507 122.159 122.507Z" fill="#84B5FF"/>
<path d="M244.439 101.111V173.781C244.439 175.65 242.925 177.164 241.056 177.164H130.24C128.371 177.164 126.857 175.65 126.857 173.781V101.111C126.857 96.7998 130.354 93.2971 134.671 93.2971H236.625C240.942 93.2971 244.439 96.7998 244.439 101.111Z" fill="white" stroke="#84B5FF" stroke-miterlimit="10"/>
<path d="M252.23 190.622C244.856 190.622 238.88 196.597 238.88 203.972C238.88 211.346 244.856 217.321 252.23 217.321C259.604 217.321 265.58 211.346 265.58 203.972C265.58 196.597 259.604 190.622 252.23 190.622ZM252.23 213.995C246.688 213.995 242.2 209.507 242.2 203.965C242.2 198.423 246.688 193.935 252.23 193.935C257.772 193.935 262.26 198.423 262.26 203.965C262.26 209.507 257.772 213.995 252.23 213.995Z" fill="#66D6A0"/>
<path d="M159.594 55.0222H140.944C140.21 55.0222 139.61 54.4285 139.61 53.6879C139.61 52.9537 140.204 52.3535 140.944 52.3535H159.594C160.328 52.3535 160.928 52.9473 160.928 53.6879C160.928 54.4221 160.328 55.0222 159.594 55.0222Z" fill="#66D6A0"/>
<path d="M159.594 61.6814H140.944C140.21 61.6814 139.61 61.0876 139.61 60.347C139.61 59.6128 140.204 59.0127 140.944 59.0127H159.594C160.328 59.0127 160.928 59.6064 160.928 60.347C160.928 61.0813 160.328 61.6814 159.594 61.6814Z" fill="#66D6A0"/>
<path d="M244.439 101.111V101.439H126.857V101.111C126.857 96.7998 130.354 93.2971 134.671 93.2971H236.625C240.942 93.2971 244.439 96.7998 244.439 101.111Z" fill="#84B5FF"/>
<path opacity="0.3" d="M236.582 97.7454C236.582 98.3082 236.128 98.7617 235.565 98.7617C235.002 98.7617 234.549 98.3082 234.549 97.7454C234.549 97.1825 235.002 96.729 235.565 96.729C236.123 96.729 236.582 97.1825 236.582 97.7454Z" fill="white"/>
<path opacity="0.3" d="M242.144 97.7449C242.144 98.3077 241.69 98.7612 241.128 98.7612C240.565 98.7612 240.111 98.3077 240.111 97.7449C240.111 97.1821 240.565 96.7285 241.128 96.7285C241.685 96.7285 242.144 97.1821 242.144 97.7449Z" fill="white"/>
<path opacity="0.3" d="M247.461 97.7449C247.461 98.3077 247.008 98.7612 246.445 98.7612C245.882 98.7612 245.428 98.3077 245.428 97.7449C245.428 97.1821 245.882 96.7285 246.445 96.7285C247.008 96.7285 247.461 97.1821 247.461 97.7449Z" fill="white"/>
<path d="M244.439 101.111V173.781C244.439 175.65 242.925 177.164 241.056 177.164H130.24C128.371 177.164 126.857 175.65 126.857 173.781V101.111C126.857 96.7998 130.354 93.2971 134.671 93.2971H236.625C240.942 93.2971 244.439 96.7998 244.439 101.111Z" stroke="#84B5FF" stroke-miterlimit="10"/>
<path opacity="0.5" d="M195.481 204.193C205.986 204.227 214.509 202.464 214.516 200.254C214.523 198.045 206.013 196.225 195.507 196.191C185.001 196.157 176.479 197.92 176.471 200.13C176.464 202.339 184.975 204.158 195.481 204.193Z" fill="url(#paint0_radial_53_915)"/>
<path d="M195.807 186.626C195.814 189.002 194.978 194.639 193.29 194.352C192.925 194.291 192.488 193.924 192.021 193.35C190.595 191.611 188.862 188.01 187.882 185.542C187.35 184.195 187.036 183.186 187.125 182.997C187.651 181.836 195.18 185.181 195.668 185.613C195.756 185.697 195.807 186.072 195.807 186.626Z" fill="#84B5FF"/>
<path d="M187.122 182.997C186.545 184.091 193.389 187.405 195.75 185.826C195.75 185.826 187.886 181.545 187.122 182.997Z" fill="#276ED8"/>
<path d="M203.964 184.067C203.906 184.276 203.838 184.496 203.773 184.722C202.736 188.161 200.928 193.171 199.567 194.882C199.243 195.294 198.943 195.513 198.687 195.48C198.618 195.473 198.55 195.449 198.485 195.419C198.257 195.314 198.035 195.081 197.824 194.754V194.75C196.5 192.712 195.545 187.004 195.739 185.377C195.763 185.174 195.804 185.036 195.865 184.975C196.978 183.885 204.288 180.718 204.578 181.275C204.653 181.424 204.404 182.531 203.964 184.067Z" fill="#84B5FF"/>
<path d="M195.74 185.377C195.46 185.839 202.672 185.802 204.579 181.276C204.579 181.276 198.384 181.032 195.74 185.377Z" fill="#276ED8"/>
<path d="M184.079 135.665C184.475 135.874 184.441 136.296 183.626 136.192C182.81 136.087 182.367 135.453 182.455 135.331C182.541 135.209 183.636 135.429 184.079 135.665Z" fill="white"/>
<path d="M204.483 179.061C203.835 182.855 200.399 185.387 195.477 185.387C191.192 185.387 187.559 183.807 186.6 180.324C185.641 176.847 186.013 170.413 187.292 166.406C187.483 165.809 187.715 165.232 187.982 164.685L187.985 164.678C188.227 164.182 188.497 163.709 188.794 163.267C188.797 163.264 188.797 163.26 188.797 163.26C190.359 160.931 192.648 159.409 195.238 159.409C197.933 159.409 199.993 160.506 201.396 162.126C202.047 162.879 202.559 163.75 202.924 164.671C203.347 165.735 203.702 166.862 203.981 168.023C203.981 168.03 203.985 168.043 203.988 168.057C204.875 171.699 205.063 175.669 204.483 179.061Z" fill="#84B5FF"/>
<path opacity="0.3" d="M204.483 179.061C203.835 182.855 200.399 185.387 195.477 185.387C191.192 185.387 187.559 183.807 186.6 180.324C185.641 176.847 186.013 170.413 187.292 166.406C187.483 165.809 187.715 165.232 187.982 164.685L187.985 164.678C187.985 164.678 185.392 173.184 187.463 178.602C189.537 184.02 199.192 183.905 202.46 180.307C205.571 176.881 204.132 168.833 203.988 168.064C204.875 171.699 205.063 175.669 204.483 179.061Z" fill="#0D6EB7"/>
<path d="M186.784 176.806C187.518 171.713 191.646 168.259 196.234 168.688C201.178 169.151 203.835 173.819 203.767 177.826C203.695 181.832 200.737 184.962 195.429 184.962C190.121 184.962 186.099 181.573 186.784 176.806Z" fill="#84B5FF"/>
<path d="M186.832 177.228C187.566 172.135 191.694 168.681 196.282 169.11C201.225 169.573 203.883 174.241 203.815 178.248C203.743 182.254 200.785 185.384 195.477 185.384C190.172 185.387 186.147 181.995 186.832 177.228Z" fill="url(#paint1_radial_53_915)"/>
<path opacity="0.5" d="M201.396 162.126C200.349 163.753 194.573 164.702 191.236 164.401C188.33 164.138 188.773 163.362 188.794 163.264C188.797 163.26 188.797 163.257 188.797 163.257C190.36 160.928 192.649 159.406 195.238 159.406C197.933 159.409 199.994 160.506 201.396 162.126Z" fill="#276ED8"/>
<path d="M180.261 156.415C183.53 163.875 207.993 161.549 210.917 155.419C214.114 148.715 206.762 132.151 195.04 132.924C185.136 133.579 176.062 146.825 180.261 156.415Z" fill="#84B5FF"/>
<path d="M181.612 155.361C184.737 161.481 206.093 160.469 209.211 154.845C211.858 150.069 205.605 135.523 194.876 136.04C184.146 136.56 178.61 149.488 181.612 155.361Z" fill="#276ED8"/>
<path d="M204.797 148.151C204.378 149.265 198.745 149.137 198.752 148.735C198.786 146.511 199.99 143.588 202.239 143.608C204.558 143.628 205.582 146.075 204.797 148.151Z" fill="#66D6A0"/>
<path d="M185.819 148.3C186.303 149.39 191.918 148.948 191.888 148.546C191.727 146.325 190.363 143.476 188.118 143.621C185.802 143.77 184.918 146.271 185.819 148.3Z" fill="#66D6A0"/>
<path d="M191.986 152.418C191.14 152.621 192.911 155.419 195.753 155.419C198.274 155.419 199.696 152.543 199.376 152.418C199.055 152.293 197.544 153.066 195.439 153.066C193.334 153.066 192.341 152.334 191.986 152.418Z" fill="#84B5FF"/>
<path d="M188.49 164.992C188.483 167.027 188.193 169.967 187.262 172.344C185.717 176.279 183.397 181.231 183.329 181.387L183.325 181.39C181.909 182.244 180.211 182.2 179.132 182.045C178.477 181.95 178.051 181.815 178.051 181.815C178.051 181.815 178.532 177.309 181.036 172.202C182.292 169.636 183.895 167.25 185.277 165.491C185.283 165.485 185.29 165.474 185.297 165.468C185.311 165.444 185.331 165.424 185.348 165.4C185.358 165.387 185.369 165.377 185.376 165.363C185.386 165.353 185.396 165.339 185.399 165.329C185.413 165.312 185.423 165.299 185.437 165.285C185.44 165.282 185.444 165.279 185.444 165.279C185.447 165.275 185.451 165.272 185.451 165.272C186.853 163.51 187.992 162.443 188.231 162.571C188.371 162.646 188.497 163.608 188.49 164.992Z" fill="#276ED8"/>
<path d="M178.071 181.636C178.071 181.636 179.896 178.656 181.78 179.044C183.663 179.432 183.325 181.39 183.325 181.39C183.325 181.39 180.916 183.115 178.071 181.636Z" fill="#84B5FF"/>
<path d="M188.49 164.992C188.483 167.027 188.193 169.967 187.262 172.344C185.717 176.279 183.397 181.231 183.329 181.387L183.325 181.39L179.132 182.045C178.477 181.95 178.051 181.815 178.051 181.815C178.051 181.815 178.532 177.309 181.036 172.202C182.292 169.636 183.895 167.25 185.277 165.491C184.485 166.524 181.179 171.017 180.289 174.835C179.276 179.179 183.359 177.505 185.031 174.835C186.699 172.165 188.442 164.995 188.442 164.995H188.49V164.992Z" fill="#84B5FF"/>
<path d="M178.047 181.812C178.047 181.812 179.173 180.236 180.8 180.023C182.428 179.814 183.011 180.259 183.321 181.387C183.635 182.518 181.326 186.632 178.46 189.734C177.222 189.836 176.85 188.334 176.669 187.368C176.672 186.524 177.491 183.139 178.047 181.812Z" fill="#84B5FF"/>
<path d="M182.002 180.013C182.002 180.013 178.949 184.209 177.98 186.622C177.458 187.925 177.158 188.779 177.158 188.779C177.158 188.779 177.952 190.767 179.266 189.103C181.129 186.747 183.626 183.203 183.172 181.498C182.79 180.057 182.534 179.783 182.002 180.013Z" fill="#276ED8"/>
<path opacity="0.5" d="M179.429 183.878C179.429 183.878 179.855 186.116 181.223 186.45L181.438 181.079C181.438 181.076 179.838 183.186 179.429 183.878Z" fill="#84B5FF"/>
<path d="M180.767 182.356C180.562 182.872 180.958 186.254 181.33 186.639C181.702 187.021 182.561 186.376 182.8 185.691C183.039 185.005 184.114 181.272 182.732 180.074C182.732 180.07 181.62 180.192 180.767 182.356Z" fill="#84B5FF"/>
<path d="M202.452 165.213C202.459 167.249 202.749 170.189 203.68 172.565C205.225 176.501 207.545 181.453 207.614 181.608L207.617 181.612C209.033 182.466 210.732 182.422 211.81 182.267C212.465 182.172 212.891 182.037 212.891 182.037C212.891 182.037 212.41 177.531 209.906 172.424C208.651 169.858 207.047 167.472 205.666 165.713C205.659 165.706 205.652 165.696 205.645 165.689C205.631 165.666 205.611 165.645 205.594 165.622C205.584 165.608 205.573 165.598 205.567 165.585C205.556 165.575 205.546 165.561 205.543 165.551C205.529 165.534 205.519 165.521 205.505 165.507C205.502 165.504 205.498 165.5 205.498 165.5C205.495 165.497 205.492 165.494 205.492 165.494C204.089 163.732 202.95 162.665 202.711 162.793C202.571 162.867 202.445 163.829 202.452 165.213Z" fill="#276ED8"/>
<path d="M212.871 181.858C212.871 181.858 211.046 178.878 209.163 179.266C207.279 179.654 207.617 181.612 207.617 181.612C207.617 181.612 210.026 183.337 212.871 181.858Z" fill="#84B5FF"/>
<path d="M202.452 165.213C202.459 167.249 202.749 170.189 203.68 172.565C205.225 176.501 207.545 181.453 207.614 181.608L207.617 181.612L211.81 182.267C212.465 182.172 212.891 182.037 212.891 182.037C212.891 182.037 212.41 177.531 209.906 172.424C208.651 169.858 207.047 167.472 205.666 165.713C206.457 166.746 209.763 171.239 210.653 175.056C211.666 179.401 207.583 177.726 205.911 175.056C204.243 172.386 202.5 165.217 202.5 165.217H202.452V165.213Z" fill="#84B5FF"/>
<path d="M212.895 182.034C212.895 182.034 211.769 180.457 210.142 180.245C208.515 180.035 207.931 180.481 207.621 181.608C207.307 182.739 209.617 186.854 212.482 189.956C213.721 190.057 214.092 188.555 214.273 187.59C214.27 186.746 213.451 183.36 212.895 182.034Z" fill="#84B5FF"/>
<path d="M208.94 180.234C208.94 180.234 211.994 184.43 212.962 186.844C213.484 188.147 213.785 189.001 213.785 189.001C213.785 189.001 212.99 190.989 211.676 189.325C209.814 186.969 207.316 183.424 207.77 181.72C208.152 180.278 208.408 180.005 208.94 180.234Z" fill="#276ED8"/>
<path opacity="0.5" d="M211.513 184.099C211.513 184.099 211.087 186.337 209.719 186.672L209.504 181.301C209.504 181.298 211.104 183.407 211.513 184.099Z" fill="#84B5FF"/>
<path d="M210.175 182.577C210.38 183.094 209.984 186.476 209.612 186.861C209.241 187.242 208.381 186.597 208.142 185.912C207.903 185.227 206.829 181.494 208.21 180.295C208.21 180.292 209.322 180.413 210.175 182.577Z" fill="#84B5FF"/>
<path d="M189.58 126.656L188.115 125.643L188.821 124.232L187.13 123.215L187.726 121.902L186.228 120.991L186.874 119.389L185.589 118.248L184.128 119.074L187.011 127.593L189.58 126.656Z" fill="#06B25F"/>
<path d="M165.306 111.119L173.861 125.535L175.905 124.313L172.193 113.296L165.306 111.119Z" fill="#66D6A0"/>
<path d="M174.405 99.8278C174.607 99.9051 179.054 103.274 178.945 103.371C178.837 103.47 171.848 113.962 171.848 113.962L165.839 110.023L174.405 99.8278Z" fill="#66D6A0"/>
<path d="M171.159 114.941C169.681 116.285 167.395 116.181 166.053 114.707C164.711 113.232 164.821 110.947 166.299 109.603C167.777 108.258 170.063 108.362 171.405 109.837C172.748 111.308 172.638 113.593 171.159 114.941Z" fill="#06B25F"/>
<path d="M179.977 113.641C179.283 114.271 178.213 114.223 177.585 113.531C176.956 112.842 177.007 111.769 177.701 111.14C178.395 110.51 179.464 110.558 180.093 111.25C180.72 111.941 180.669 113.01 179.977 113.641Z" fill="#66D6A0"/>
<path d="M199.613 124.929L201.169 124.051L200.596 122.583L202.375 121.72L201.905 120.362L203.482 119.585L202.988 117.932L204.374 116.909L205.752 117.865L202.084 126.091L199.613 124.929Z" fill="#06B25F"/>
<path d="M215.283 110.727L205.412 124.322L203.495 122.924L208.219 112.282L215.283 110.727Z" fill="#66D6A0"/>
<path d="M192.026 66.5818L199.747 72.5401L198.38 95.4814L190.991 96.6552L192.026 66.5818Z" fill="#66D6A0"/>
<path d="M207.277 98.6718C207.069 98.7319 202.327 101.689 202.425 101.796C202.524 101.904 208.503 112.976 208.503 112.976L214.854 109.589L207.277 98.6718Z" fill="#66D6A0"/>
<path d="M184.515 98.9086C186.924 94.5153 203.354 93.4715 206.254 97.2664C208.896 100.728 207.608 102.975 205.874 103.881C203.109 105.323 202.519 100.335 199.797 100.478C197.076 100.62 193.81 100.849 191.378 101.096C188.668 101.37 188.825 106.39 185.877 105.39C184.028 104.76 182.417 102.734 184.515 98.9086Z" fill="#06B25F"/>
<path d="M209.094 114.011C210.44 115.483 212.726 115.581 214.202 114.233C215.677 112.885 215.781 110.599 214.435 109.128C213.088 107.657 210.803 107.558 209.328 108.906C207.853 110.256 207.749 112.539 209.094 114.011Z" fill="#06B25F"/>
<path d="M184.887 102.997C185.444 103.745 186.505 103.9 187.255 103.342C188.005 102.783 188.163 101.722 187.606 100.974C187.047 100.224 185.987 100.07 185.238 100.629C184.486 101.186 184.33 102.245 184.887 102.997Z" fill="#66D6A0"/>
<path d="M210.395 112.823C211.025 113.511 212.097 113.558 212.788 112.928C213.477 112.296 213.526 111.225 212.897 110.536C212.267 109.848 211.195 109.802 210.505 110.432C209.812 111.063 209.763 112.134 210.395 112.823Z" fill="#66D6A0"/>
<path d="M203.18 101.201C203.737 101.949 204.798 102.105 205.548 101.546C206.298 100.987 206.456 99.9263 205.899 99.1781C205.341 98.43 204.28 98.2744 203.53 98.833C202.779 99.39 202.621 100.451 203.18 101.201Z" fill="#66D6A0"/>
<path d="M196.864 60.8772H250.473V62.1581H196.864V60.8772Z" fill="#66D6A0"/>
<path d="M247.596 59.0847H252.818V69.2482H247.596V59.0847Z" fill="#66D6A0"/>
<path d="M193.158 58.3948H198.38V68.5583H193.158V58.3948Z" fill="#66D6A0"/>
<path d="M251.452 66.6379L245.384 76.991L196.866 75.7432L194.48 66.2874L251.452 66.6379Z" fill="#66D6A0"/>
<path d="M308.841 131.193C307.511 132.56 279.166 118.928 279.166 118.928L265.729 130.053L308.156 164.668L308.841 131.193Z" fill="#66D6A0"/>
<path d="M279.166 118.928L253.829 67.198L245.383 76.9911L265.729 130.053L279.166 118.928Z" fill="#66D6A0"/>
<path d="M305.189 125.125V164.13C305.189 165.936 306.656 167.4 308.466 167.4H328.46C330.27 167.4 331.737 165.936 331.737 164.13V125.125C331.737 123.32 330.27 121.856 328.46 121.856H308.466C306.656 121.856 305.189 123.32 305.189 125.125Z" fill="#66D6A0"/>
<path d="M272.992 133.719C267.854 133.719 263.689 129.564 263.689 124.438C263.689 119.312 267.854 115.156 272.992 115.156C278.13 115.156 282.295 119.312 282.295 124.438C282.295 129.564 278.13 133.719 272.992 133.719Z" fill="#06B25F"/>
<path d="M243.614 72.8573C243.614 76.4861 246.561 79.4272 250.199 79.4272C253.836 79.4272 256.784 76.4861 256.784 72.8573C256.784 69.2284 253.836 66.2874 250.199 66.2874C246.561 66.2874 243.614 69.2284 243.614 72.8573Z" fill="#06B25F"/>
<path d="M329.951 121.093V167.365C329.951 169.459 331.549 171.157 333.52 171.157V117.301C331.549 117.301 329.951 118.999 329.951 121.093Z" fill="#06B25F"/>
<path d="M273.974 119.806C273.974 119.122 252.232 72.8574 252.232 72.8574L249.149 73.8583L267.981 122.537L273.974 119.806Z" fill="#06B25F"/>
<path d="M247.014 72.853C247.014 74.6123 248.444 76.0365 250.205 76.0365C251.967 76.0365 253.396 74.6101 253.396 72.853C253.396 71.0936 251.967 69.6694 250.205 69.6694C248.444 69.6694 247.014 71.0936 247.014 72.853Z" fill="#66D6A0"/>
<path d="M190.299 71.3626C190.299 74.3764 192.747 76.8213 195.77 76.8213C198.791 76.8213 201.242 74.3786 201.242 71.3626C201.242 68.3488 198.793 65.9038 195.77 65.9038C192.75 65.9038 190.299 68.3466 190.299 71.3626Z" fill="#06B25F"/>
<path d="M245.384 70.1434L199.96 69.6672V71.8675L245.384 74.4844V70.1434Z" fill="#06B25F"/>
<path d="M193.324 70.9965C193.324 72.3435 194.418 73.4348 195.768 73.4348C197.118 73.4348 198.212 72.3435 198.212 70.9965C198.212 69.6494 197.118 68.5581 195.768 68.5581C194.42 68.5581 193.324 69.6494 193.324 70.9965Z" fill="#66D6A0"/>
<path d="M269.084 124.772C269.084 126.957 270.859 128.727 273.049 128.727C275.239 128.727 277.013 126.957 277.013 124.772C277.013 122.587 275.239 120.817 273.049 120.817C270.859 120.817 269.084 122.587 269.084 124.772Z" fill="#66D6A0"/>
<g filter="url(#filter0_d_53_915)">
<rect x="102.694" y="153.034" width="38.9298" height="38.2586" rx="6" fill="#276ED8"/>
</g>
<g clip-path="url(#clip0_53_915)">
<path d="M111.42 171.828C111.42 170.823 113.79 169.516 117.86 168.95C117.781 169.88 117.74 170.845 117.74 171.828C117.74 172.811 117.781 173.776 117.86 174.707C113.79 174.14 111.42 172.833 111.42 171.828Z" fill="white"/>
<path d="M122.159 182.567C121.154 182.567 119.847 180.197 119.281 176.127C120.211 176.206 121.176 176.247 122.159 176.247C123.142 176.247 124.107 176.206 125.038 176.127C124.472 180.197 123.165 182.567 122.159 182.567Z" fill="white"/>
<path d="M126.458 174.707C126.537 173.776 126.578 172.811 126.578 171.828C126.578 170.847 126.537 169.884 126.458 168.955C127.304 169.073 128.106 169.226 128.844 169.411L128.565 169.531C128.246 169.668 128.099 170.038 128.236 170.358C128.374 170.677 128.744 170.824 129.063 170.687L130.794 169.942C131.113 169.805 131.26 169.434 131.123 169.115L130.378 167.384C130.276 167.146 130.043 167.004 129.8 167.004C129.717 167.004 129.632 167.02 129.551 167.055C129.232 167.193 129.085 167.563 129.222 167.882L129.38 168.25C128.449 168.003 127.416 167.808 126.322 167.668C126.129 166.159 125.83 164.772 125.436 163.59C125.129 162.669 124.778 161.911 124.389 161.322C129.244 162.352 132.898 166.671 132.898 171.828C132.898 172.833 130.528 174.14 126.458 174.707Z" fill="white"/>
<path d="M119.134 174.853C119.048 173.916 118.999 172.906 118.999 171.828C118.999 170.75 119.048 169.74 119.134 168.803C120.071 168.716 121.081 168.668 122.159 168.668C123.191 168.668 124.209 168.716 125.185 168.807C125.271 169.743 125.319 170.752 125.319 171.828C125.319 172.906 125.271 173.916 125.184 174.853C124.248 174.94 123.237 174.988 122.159 174.988C121.081 174.988 120.071 174.94 119.134 174.853Z" fill="white"/>
<path d="M122.159 167.409C121.176 167.409 120.211 167.45 119.281 167.529C119.847 163.459 121.154 161.089 122.159 161.089C123.165 161.089 124.472 163.46 125.038 167.531C124.103 167.451 123.137 167.409 122.159 167.409Z" fill="white"/>
<path d="M119.929 161.322C119.541 161.911 119.19 162.669 118.883 163.59C118.489 164.772 118.19 166.158 117.997 167.666C116.489 167.859 115.103 168.158 113.921 168.552C113 168.859 112.242 169.21 111.653 169.598C112.53 165.463 115.794 162.199 119.929 161.322Z" fill="white"/>
<path d="M132.665 174.058C131.788 178.194 128.524 181.457 124.389 182.334C124.778 181.745 125.129 180.987 125.436 180.066C125.829 178.885 126.128 177.499 126.322 175.991C127.83 175.798 129.216 175.498 130.397 175.105C131.318 174.798 132.076 174.447 132.665 174.058Z" fill="white"/>
<path d="M113.921 175.105C115.102 175.498 116.488 175.797 117.996 175.991C118.19 177.499 118.489 178.885 118.882 180.066C119.189 180.987 119.54 181.745 119.929 182.334C115.794 181.457 112.53 178.194 111.653 174.058C112.242 174.447 113 174.798 113.921 175.105Z" fill="white"/>
</g>
<defs>
<filter id="filter0_d_53_915" x="96.6941" y="147.034" width="60.9298" height="60.2585" filterUnits="userSpaceOnUse" color-interpolation-filters="sRGB">
<feFlood flood-opacity="0" result="BackgroundImageFix"/>
<feColorMatrix in="SourceAlpha" type="matrix" values="0 0 0 0 0 0 0 0 0 0 0 0 0 0 0 0 0 0 127 0" result="hardAlpha"/>
<feMorphology radius="3" operator="dilate" in="SourceAlpha" result="effect1_dropShadow_53_915"/>
<feOffset dx="5" dy="5"/>
<feGaussianBlur stdDeviation="4"/>
<feColorMatrix type="matrix" values="0 0 0 0 0 0 0 0 0 0 0 0 0 0 0 0 0 0 0.2 0"/>
<feBlend mode="normal" in2="BackgroundImageFix" result="effect1_dropShadow_53_915"/>
<feBlend mode="normal" in="SourceGraphic" in2="effect1_dropShadow_53_915" result="shape"/>
</filter>
<radialGradient id="paint0_radial_53_915" cx="0" cy="0" r="1" gradientUnits="userSpaceOnUse" gradientTransform="translate(195.494 200.193) rotate(0.187749) scale(19.026 3.99883)">
<stop stop-color="#7B7EC9"/>
<stop offset="0.3883" stop-color="#BFD8F5"/>
<stop offset="1" stop-color="white"/>
</radialGradient>
<radialGradient id="paint1_radial_53_915" cx="0" cy="0" r="1" gradientUnits="userSpaceOnUse" gradientTransform="translate(195.568 182.854) scale(12.5786 12.446)">
<stop stop-color="#81D884"/>
<stop offset="1" stop-color="#2DA531"/>
</radialGradient>
<clipPath id="clip0_53_915">
<rect width="21.4785" height="21.4785" fill="white" transform="matrix(1 0 0 -1 111.42 182.567)"/>
</clipPath>
</defs>
</svg>
