<svg width="312" height="287" viewBox="0 0 312 287" fill="none" xmlns="http://www.w3.org/2000/svg">
<path opacity="0.04" d="M101.237 247.226C160.053 264.893 255.089 247.365 286.745 212.677C318.401 177.99 284.466 136.422 261.152 120.708C253.898 115.846 245.782 112.247 239.86 105.637C226.93 91.1613 222.272 68.1795 206.213 57.893C192.324 48.9841 176.089 56.8913 160.713 51.5773C154.002 49.3027 142.969 39.7758 131.631 37.7016C106.555 33.1141 46.0355 56.5274 39.274 80.7131C32.5125 104.899 20.6979 223.035 101.237 247.226Z" fill="#276ED8"/>
<path opacity="0.2" d="M217.408 139.352L225.042 137.916V131.071L217.408 129.755C216.821 126.943 215.708 124.31 214.177 121.977L218.556 115.551L213.71 110.705L207.38 115.18C205.047 113.649 202.426 112.548 199.602 111.961L198.166 104.327H191.321L190.005 111.961C187.193 112.548 184.56 113.661 182.227 115.192L175.813 110.813L170.967 115.659L175.442 121.989C173.911 124.322 172.81 126.955 172.223 129.767L164.589 131.203V138.048L172.223 139.364C172.81 142.188 173.922 144.809 175.454 147.142L171.075 153.556L175.921 158.402L182.263 153.927C184.596 155.458 187.229 156.571 190.041 157.146L191.477 164.78H198.322L199.638 157.146C202.462 156.559 205.082 155.446 207.416 153.915L213.83 158.294L218.676 153.448L214.201 147.118C215.72 144.797 216.821 142.176 217.408 139.352ZM194.815 148.733C186.99 148.733 180.647 142.379 180.647 134.565C180.647 126.752 186.99 120.397 194.815 120.397C202.641 120.397 208.983 126.74 208.983 134.565C208.983 142.391 202.641 148.733 194.815 148.733Z" fill="#84B5FF"/>
<path d="M42.757 109.512V173.375C42.757 176.553 45.3371 179.133 48.5156 179.133H127.541C130.719 179.133 133.3 176.553 133.3 173.375V109.512C133.3 106.334 130.719 103.754 127.541 103.754H48.5094C45.3309 103.76 42.757 106.334 42.757 109.512ZM127.622 176.179H88.0283L48.6402 175.998C47.4623 175.998 46.3031 175.226 46.3031 174.048V108.839C46.3031 107.661 47.2567 106.708 48.4346 106.708H127.622C128.8 106.708 129.753 107.661 129.753 108.839V174.048C129.753 175.226 128.8 176.179 127.622 176.179Z" fill="#66D6A0"/>
<path d="M226.232 177.868C219.034 177.868 213.201 183.701 213.201 190.899C213.201 198.098 219.034 203.931 226.232 203.931C233.431 203.931 239.264 198.098 239.264 190.899C239.264 183.701 233.431 177.868 226.232 177.868ZM226.232 200.684C220.823 200.684 216.441 196.303 216.441 190.893C216.441 185.484 220.823 181.102 226.232 181.102C231.642 181.102 236.023 185.484 236.023 190.893C236.023 196.303 231.642 200.684 226.232 200.684Z" fill="#66D6A0"/>
<path d="M188.039 139.732V222.615C188.039 224.747 186.312 226.473 184.181 226.473H57.7899C55.6585 226.473 53.9321 224.747 53.9321 222.615V139.732C53.9321 134.815 57.9208 130.82 62.8443 130.82H179.126C184.05 130.82 188.039 134.815 188.039 139.732Z" fill="white" stroke="#84B5FF" stroke-miterlimit="10"/>
<path d="M188.039 139.732V140.106H53.9321V139.732C53.9321 134.815 57.9208 130.82 62.8443 130.82H179.126C184.05 130.82 188.039 134.815 188.039 139.732Z" fill="#84B5FF"/>
<path opacity="0.2" d="M146.859 146.731H139.766C139.137 146.731 138.626 146.22 138.626 145.591C138.626 144.961 139.137 144.45 139.766 144.45H146.859C147.488 144.45 147.999 144.961 147.999 145.591C147.999 146.22 147.488 146.731 146.859 146.731Z" fill="#276ED8"/>
<path opacity="0.2" d="M160.265 146.731H153.172C152.543 146.731 152.032 146.22 152.032 145.591C152.032 144.961 152.543 144.45 153.172 144.45H160.265C160.894 144.45 161.405 144.961 161.405 145.591C161.411 146.22 160.9 146.731 160.265 146.731Z" fill="#276ED8"/>
<path opacity="0.2" d="M173.882 146.731H166.789C166.16 146.731 165.649 146.22 165.649 145.591C165.649 144.961 166.16 144.45 166.789 144.45H173.882C174.511 144.45 175.022 144.961 175.022 145.591C175.022 146.22 174.511 146.731 173.882 146.731Z" fill="#276ED8"/>
<path opacity="0.2" d="M187.288 146.731H180.195C179.566 146.731 179.055 146.22 179.055 145.591C179.055 144.961 179.566 144.45 180.195 144.45H187.288C187.917 144.45 188.428 144.961 188.428 145.591C188.434 146.22 187.923 146.731 187.288 146.731Z" fill="#276ED8"/>
<path opacity="0.2" d="M173.14 164.518H143.337C142.758 164.518 142.29 164.051 142.29 163.471V159.875C142.29 159.296 142.758 158.828 143.337 158.828H173.14C173.72 158.828 174.187 159.296 174.187 159.875V163.471C174.187 164.045 173.72 164.518 173.14 164.518Z" fill="#276ED8"/>
<path opacity="0.2" d="M164.633 171.386H143.3C142.739 171.386 142.29 170.931 142.29 170.376C142.29 169.815 142.745 169.367 143.3 169.367H164.633C165.194 169.367 165.643 169.822 165.643 170.376C165.643 170.931 165.194 171.386 164.633 171.386Z" fill="#276ED8"/>
<path opacity="0.2" d="M185.979 176.272H143.3C142.739 176.272 142.29 175.817 142.29 175.263C142.29 174.702 142.745 174.253 143.3 174.253H185.979C186.54 174.253 186.988 174.708 186.988 175.263C186.988 175.817 186.54 176.272 185.979 176.272Z" fill="#276ED8"/>
<path opacity="0.2" d="M185.979 181.158H143.3C142.739 181.158 142.29 180.703 142.29 180.149C142.29 179.588 142.745 179.139 143.3 179.139H185.979C186.54 179.139 186.988 179.594 186.988 180.149C186.988 180.703 186.54 181.158 185.979 181.158Z" fill="#276ED8"/>
<path opacity="0.2" d="M185.841 186.119H143.162C142.602 186.119 142.153 185.664 142.153 185.109C142.153 184.549 142.608 184.1 143.162 184.1H185.841C186.402 184.1 186.851 184.555 186.851 185.109C186.851 185.664 186.402 186.119 185.841 186.119Z" fill="#276ED8"/>
<path opacity="0.1" d="M188.038 208.618V222.616C188.038 224.747 186.312 226.473 184.18 226.473H57.7894C55.658 226.473 53.9316 224.747 53.9316 222.616V208.618H188.038Z" fill="#84B5FF"/>
<path d="M177.671 135.893C177.671 136.535 177.153 137.052 176.512 137.052C175.87 137.052 175.352 136.535 175.352 135.893C175.352 135.251 175.87 134.734 176.512 134.734C177.147 134.734 177.671 135.251 177.671 135.893Z" fill="#84B5FF"/>
<path d="M184.016 135.893C184.016 136.535 183.498 137.053 182.856 137.053C182.214 137.053 181.697 136.535 181.697 135.893C181.697 135.251 182.214 134.734 182.856 134.734C183.492 134.734 184.016 135.251 184.016 135.893Z" fill="#84B5FF"/>
<path d="M190.079 135.893C190.079 136.535 189.562 137.053 188.92 137.053C188.278 137.053 187.761 136.535 187.761 135.893C187.761 135.251 188.278 134.734 188.92 134.734C189.562 134.734 190.079 135.251 190.079 135.893Z" fill="#84B5FF"/>
<path opacity="0.1" d="M188.244 140.01V222.634C188.244 224.759 186.519 226.48 184.389 226.48H58.1041C55.9744 226.48 54.2495 224.759 54.2495 222.634V140.01C54.2495 135.108 58.2348 131.126 63.1542 131.126H179.339C184.258 131.126 188.244 135.108 188.244 140.01Z" stroke="#276ED8" stroke-miterlimit="10"/>
<g filter="url(#filter0_d_53_719)">
<path d="M120.704 150.807V189.354C120.704 190.245 119.981 190.962 119.096 190.962H67.6986C66.8136 190.962 66.0907 190.245 66.0907 189.354V150.807C66.0907 149.916 66.8136 149.199 67.6986 149.199H119.096C119.988 149.205 120.704 149.922 120.704 150.807Z" fill="#06B25F"/>
</g>
<path d="M120.704 175.369V189.354C120.704 190.245 119.981 190.962 119.096 190.962H67.6981C66.8132 190.962 66.0902 190.245 66.0902 189.354V175.898C66.0902 175.898 74.859 160.779 81.0789 160.779C88.8318 160.779 93.2381 178.422 97.0896 178.422C100.941 178.422 105.958 166.288 111.056 166.288C114.122 166.282 118.049 171.324 120.704 175.369Z" fill="#66D6A0"/>
<path d="M113.692 157.844C113.692 159.807 112.097 161.402 110.134 161.402C108.171 161.402 106.575 159.807 106.575 157.844C106.575 155.88 108.171 154.285 110.134 154.285C112.103 154.291 113.692 155.88 113.692 157.844Z" fill="#66D6A0"/>
<g filter="url(#filter1_d_53_719)">
<path d="M155.761 96.2308V122.637C155.761 124.021 154.639 125.136 153.262 125.136H114.622C113.238 125.136 112.123 124.014 112.123 122.637V96.2308C112.123 94.8473 113.244 93.7317 114.622 93.7317H153.262C154.639 93.7317 155.761 94.8535 155.761 96.2308Z" fill="#84B5FF"/>
</g>
<path d="M155.76 119.11V122.643C155.76 124.027 154.639 125.142 153.261 125.142H114.621C113.238 125.142 112.122 124.021 112.122 122.643V119.11H155.76Z" fill="#276ED8"/>
<path opacity="0.8" d="M135.288 122.419C135.288 122.712 135.375 122.98 135.531 123.21H116.011C115.575 123.21 115.22 122.861 115.22 122.419C115.22 121.983 115.575 121.627 116.011 121.627H135.531C135.381 121.858 135.288 122.126 135.288 122.419Z" fill="#84B5FF"/>
<path d="M152.037 122.419C152.037 122.855 151.682 123.21 151.246 123.21H145.537C145.381 122.98 145.294 122.712 145.294 122.419C145.294 122.126 145.381 121.858 145.537 121.627H151.246C151.676 121.634 152.037 121.989 152.037 122.419Z" fill="#84B5FF"/>
<path d="M148.092 122.419C148.092 122.712 148.005 122.98 147.849 123.211C147.6 123.578 147.176 123.821 146.69 123.821C146.21 123.821 145.786 123.578 145.537 123.211C145.381 122.98 145.294 122.712 145.294 122.419C145.294 122.126 145.381 121.858 145.537 121.628C145.786 121.26 146.21 121.017 146.69 121.017C147.176 121.017 147.6 121.26 147.849 121.628C147.999 121.858 148.092 122.126 148.092 122.419Z" fill="white"/>
<path d="M147.376 122.419C147.376 122.799 147.07 123.105 146.69 123.105C146.31 123.105 146.005 122.799 146.005 122.419C146.005 122.039 146.31 121.734 146.69 121.734C147.07 121.734 147.376 122.039 147.376 122.419Z" fill="#84B5FF"/>
<path d="M157.92 123.117V121.802C157.92 121.628 158.101 121.515 158.257 121.596L159.572 122.257C159.74 122.344 159.74 122.587 159.572 122.668L158.257 123.329C158.101 123.404 157.92 123.292 157.92 123.117Z" fill="#84B5FF"/>
<path d="M161.467 122.861V122.058C161.467 121.952 161.554 121.883 161.629 121.933L162.264 122.338C162.345 122.388 162.345 122.537 162.264 122.593L161.629 122.999C161.554 123.036 161.467 122.967 161.467 122.861Z" fill="#84B5FF"/>
<path d="M162.327 122.861V122.057C162.327 121.951 162.414 121.883 162.489 121.933L163.124 122.338C163.205 122.388 163.205 122.537 163.124 122.593L162.489 122.998C162.414 123.036 162.327 122.967 162.327 122.861Z" fill="#84B5FF"/>
<path d="M156.3 122.861V122.057C156.3 121.951 156.212 121.883 156.138 121.933L155.502 122.338C155.421 122.388 155.421 122.537 155.502 122.593L156.138 122.998C156.212 123.036 156.3 122.967 156.3 122.861Z" fill="#84B5FF"/>
<path d="M155.44 122.861V122.058C155.44 121.952 155.353 121.883 155.278 121.933L154.642 122.338C154.561 122.388 154.561 122.537 154.642 122.593L155.278 122.999C155.353 123.036 155.44 122.967 155.44 122.861Z" fill="#84B5FF"/>
<path d="M141.507 108.611C142.499 104.432 139.915 100.239 135.736 99.2468C131.556 98.2546 127.363 100.838 126.371 105.018C125.379 109.198 127.962 113.39 132.142 114.383C136.322 115.375 140.514 112.791 141.507 108.611Z" fill="#FBF8FF"/>
<path d="M141.885 109.213V104.427C141.885 103.897 142.471 103.579 142.913 103.866L146.59 106.259C146.995 106.521 146.995 107.113 146.59 107.375L142.913 109.768C142.471 110.061 141.885 109.743 141.885 109.213Z" fill="#276ED8"/>
<g filter="url(#filter2_d_53_719)">
<path d="M74.7644 225.906L79.8016 224.959V220.443L74.7644 219.574C74.3775 217.719 73.6433 215.982 72.6327 214.442L75.5223 210.203L72.3248 207.005L68.1482 209.958C66.6086 208.947 64.8796 208.221 63.0163 207.834L62.0689 202.797H57.5528L56.6844 207.834C54.829 208.221 53.092 208.955 51.5525 209.966L47.3206 207.076L44.1231 210.274L47.0759 214.45C46.0653 215.99 45.3389 217.727 44.9521 219.582L39.9149 220.53V225.046L44.9521 225.914C45.3389 227.777 46.0732 229.506 47.0838 231.046L44.1941 235.278L47.3917 238.475L51.5762 235.523C53.1157 236.533 54.8527 237.267 56.708 237.646L57.6555 242.684H62.1715L63.04 237.646C64.9033 237.26 66.6323 236.525 68.1719 235.515L72.4037 238.404L75.6013 235.207L72.6485 231.03C73.6512 229.499 74.3775 227.769 74.7644 225.906ZM59.8582 232.096C54.6948 232.096 50.5103 227.904 50.5103 222.748C50.5103 217.593 54.6948 213.4 59.8582 213.4C65.0217 213.4 69.2062 217.585 69.2062 222.748C69.2062 227.912 65.0217 232.096 59.8582 232.096Z" fill="#84B5FF"/>
</g>
<g filter="url(#filter3_d_53_719)">
<path d="M33.4876 201.751L37.1377 203.03L38.8437 200.085L35.878 197.617C36.3244 196.258 36.5029 194.84 36.4236 193.462L39.915 191.786L39.0322 188.494L35.1936 188.851C34.5688 187.612 33.7058 186.481 32.6445 185.53L33.924 181.881L30.9782 180.175L28.5084 183.14C27.1495 182.694 25.7312 182.515 24.3524 182.595L22.6762 179.114L19.3831 179.997L19.7402 183.844C18.5004 184.469 17.3696 185.331 16.4174 186.392L12.7673 185.113L11.0613 188.058L14.027 190.527C13.5807 191.895 13.4021 193.293 13.4815 194.682L10 196.357L10.8828 199.649L14.7312 199.292C15.3561 200.532 16.2091 201.662 17.2804 202.614L16.0008 206.263L18.9467 207.968L21.4165 205.004C22.7853 205.45 24.1838 205.628 25.5725 205.549L27.2487 209.029L30.5417 208.147L30.1847 204.3C31.4047 203.685 32.5354 202.832 33.4876 201.751ZM21.4165 200.175C18.0441 198.231 16.8935 193.918 18.8376 190.547C20.7817 187.176 25.0963 186.025 28.4687 187.969C31.8411 189.912 32.9917 194.225 31.0476 197.597C29.1035 200.968 24.7889 202.118 21.4165 200.175Z" fill="#84B5FF"/>
</g>
<rect x="53.0029" y="175.998" width="13.0878" height="3.11614" fill="#66D6A0"/>
<g clip-path="url(#clip0_53_719)">
<path d="M106.828 235.209L113.216 204.023C114.485 197.831 120.39 194.024 126.238 195.724L128.881 196.492C129.83 196.768 130.813 196.909 131.802 196.911L137.703 196.924L161.986 196.976L168.381 196.99C169.474 196.993 170.564 196.848 171.624 196.561L174.603 195.751C181.358 193.916 188.411 198.088 189.957 204.948L197.925 240.288C199.257 246.197 195.907 251.847 190.155 253.468C183.756 255.272 176.843 251.26 175.082 244.823L172.346 234.829C171.779 232.755 169.914 231.253 167.797 231.155L132.333 229.519C130.416 229.43 128.743 230.691 128.237 232.598L125.818 241.712C124.278 247.516 118.36 250.324 113.056 247.856C108.424 245.7 105.783 240.311 106.828 235.209Z" fill="url(#paint0_linear_53_719)"/>
<path opacity="0.3" d="M137.906 213.362L157.661 213.915C159.419 213.964 160.852 212.335 160.852 210.276V196.983L134.93 196.918V209.696C134.93 211.674 136.259 213.315 137.906 213.362Z" fill="url(#paint1_linear_53_719)"/>
<path d="M164.373 210.193C164.373 215.971 169.088 220.809 174.983 221.001C180.969 221.196 185.888 216.543 185.888 210.605C185.888 204.667 180.969 199.826 174.983 199.792C169.087 199.759 164.373 204.415 164.373 210.193Z" fill="url(#paint2_linear_53_719)"/>
<path d="M152.339 223.944C152.339 228.614 156.085 232.581 160.758 232.808C165.487 233.037 169.364 229.355 169.364 224.581C169.364 219.807 165.487 215.835 160.758 215.71C156.086 215.586 152.339 219.273 152.339 223.944Z" fill="#68A4FF"/>
<path d="M153.962 224.004C153.962 227.774 156.99 230.971 160.758 231.145C164.563 231.322 167.676 228.355 167.676 224.518C167.676 220.681 164.563 217.481 160.758 217.372C156.99 217.265 153.962 220.234 153.962 224.004Z" fill="#4389F2"/>
<path d="M156.219 224.114C156.219 226.234 157.922 228.032 160.041 228.13C162.181 228.229 163.931 226.561 163.931 224.404C163.931 222.246 162.181 220.446 160.041 220.385C157.922 220.324 156.219 221.995 156.219 224.114Z" fill="#276ED8"/>
<path d="M127.266 222.9C127.266 227.4 130.744 231.216 135.079 231.427C139.466 231.64 143.06 228.088 143.06 223.492C143.06 218.895 139.466 215.075 135.079 214.959C130.744 214.844 127.266 218.4 127.266 222.9Z" fill="#68A4FF"/>
<path d="M128.773 222.956C128.773 226.588 131.583 229.663 135.08 229.825C138.609 229.989 141.495 227.127 141.495 223.433C141.495 219.738 138.609 216.66 135.08 216.559C131.583 216.46 128.773 219.324 128.773 222.956Z" fill="#4389F2"/>
<path d="M130.229 223.051C130.229 225.17 131.932 226.968 134.051 227.067C136.19 227.166 137.941 225.498 137.941 223.34C137.941 221.182 136.19 219.383 134.051 219.322C131.932 219.261 130.229 220.931 130.229 223.051Z" fill="#276ED8"/>
<path d="M164.37 203.874C165.096 203.882 165.685 203.3 165.685 202.574V200.265C165.685 199.539 165.096 198.948 164.37 198.945C163.646 198.942 163.061 199.525 163.061 200.248V202.55C163.061 203.273 163.646 203.866 164.37 203.874Z" fill="#5483FC"/>
<path d="M132.495 203.487C133.156 203.494 133.692 202.939 133.692 202.246V200.04C133.692 199.348 133.155 198.783 132.495 198.78C131.835 198.777 131.3 199.334 131.3 200.025V202.223C131.3 202.914 131.835 203.48 132.495 203.487Z" fill="url(#paint3_linear_53_719)"/>
<path d="M173.855 202.714L176.114 202.735C176.78 202.741 177.321 203.278 177.321 203.934V206.513C177.321 206.746 177.251 206.974 177.119 207.167L176.098 208.665C175.874 208.992 175.498 209.184 175.095 209.177L174.871 209.173C174.468 209.166 174.094 208.961 173.871 208.627L172.858 207.102C172.728 206.906 172.659 206.678 172.659 206.446V203.883C172.659 203.231 173.194 202.708 173.855 202.714Z" fill="url(#paint4_linear_53_719)"/>
<path d="M173.855 218.035L176.114 218.101C176.78 218.12 177.321 217.604 177.321 216.948V214.369C177.321 214.136 177.251 213.906 177.119 213.708L176.098 212.17C175.874 211.834 175.498 211.628 175.095 211.619L174.871 211.615C174.468 211.606 174.094 211.797 173.871 212.122L172.858 213.608C172.728 213.799 172.659 214.024 172.659 214.257V216.82C172.659 217.472 173.194 218.016 173.855 218.035Z" fill="url(#paint5_linear_53_719)"/>
<path d="M182.841 209.421V211.671C182.841 212.332 182.293 212.855 181.618 212.841L178.975 212.782C178.736 212.777 178.503 212.703 178.304 212.569L176.761 211.53C176.424 211.303 176.222 210.928 176.222 210.53V210.309C176.222 209.912 176.424 209.544 176.761 209.33L178.304 208.35C178.503 208.224 178.736 208.158 178.975 208.163L181.618 208.206C182.294 208.217 182.841 208.761 182.841 209.421Z" fill="url(#paint6_linear_53_719)"/>
<path d="M167.278 209.146V211.352C167.278 211.999 167.806 212.536 168.458 212.551L171.031 212.608C171.265 212.613 171.494 212.549 171.69 212.425L173.213 211.457C173.547 211.245 173.748 210.879 173.748 210.483V210.262C173.748 209.866 173.547 209.493 173.213 209.267L171.69 208.241C171.494 208.11 171.265 208.038 171.031 208.033L168.458 207.992C167.806 207.981 167.278 208.498 167.278 209.146Z" fill="url(#paint7_linear_53_719)"/>
<path d="M173.35 202.826L175.61 202.847C176.276 202.854 176.817 203.39 176.817 204.046V206.625C176.817 206.858 176.747 207.086 176.615 207.279L175.593 208.777C175.37 209.104 174.994 209.297 174.591 209.289L174.367 209.285C173.964 209.278 173.589 209.073 173.367 208.739L172.354 207.214C172.224 207.018 172.154 206.79 172.154 206.558V203.995C172.155 203.343 172.69 202.82 173.35 202.826Z" fill="#5483FC"/>
<path d="M173.35 218.147L175.61 218.213C176.276 218.232 176.817 217.716 176.817 217.06V214.482C176.817 214.248 176.747 214.018 176.615 213.82L175.593 212.282C175.37 211.946 174.994 211.74 174.591 211.731L174.367 211.727C173.964 211.718 173.589 211.909 173.367 212.234L172.354 213.72C172.224 213.911 172.154 214.136 172.154 214.369V216.932C172.155 217.584 172.69 218.128 173.35 218.147Z" fill="#5483FC"/>
<path d="M182.337 209.533V211.784C182.337 212.444 181.789 212.968 181.113 212.953L178.47 212.894C178.232 212.889 177.999 212.815 177.8 212.681L176.256 211.642C175.92 211.415 175.717 211.04 175.717 210.642V210.421C175.717 210.024 175.92 209.656 176.256 209.442L177.8 208.462C177.999 208.336 178.232 208.27 178.47 208.275L181.113 208.318C181.789 208.329 182.337 208.873 182.337 209.533Z" fill="#5483FC"/>
<path d="M166.774 209.258V211.464C166.774 212.111 167.302 212.648 167.954 212.663L170.527 212.72C170.761 212.725 170.99 212.661 171.185 212.537L172.708 211.569C173.042 211.357 173.243 210.991 173.243 210.595V210.374C173.243 209.978 173.042 209.605 172.708 209.379L171.185 208.353C170.99 208.222 170.761 208.15 170.527 208.145L167.954 208.104C167.302 208.094 166.774 208.61 166.774 209.258Z" fill="#5483FC"/>
<path d="M131.521 209.506C131.521 215.016 127.282 219.345 122.119 219.177C117.028 219.011 112.953 214.523 112.953 209.15C112.953 203.778 117.028 199.445 122.119 199.474C127.282 199.504 131.521 203.995 131.521 209.506Z" fill="url(#paint8_linear_53_719)"/>
<path d="M119.762 203.112C119.762 204.494 120.816 205.629 122.12 205.647C123.428 205.666 124.492 204.553 124.492 203.163C124.492 201.772 123.428 200.637 122.12 200.628C120.816 200.619 119.762 201.731 119.762 203.112Z" fill="url(#paint9_linear_53_719)"/>
<path d="M119.762 215.448C119.762 216.83 120.816 217.983 122.12 218.023C123.428 218.064 124.492 216.969 124.492 215.579C124.492 214.188 123.428 213.036 122.12 213.004C120.816 212.972 119.762 214.067 119.762 215.448Z" fill="url(#paint10_linear_53_719)"/>
<path d="M127.997 206.908C126.672 206.887 125.602 207.999 125.602 209.392C125.602 210.785 126.672 211.938 127.997 211.968C129.326 211.998 130.407 210.886 130.407 209.484C130.407 208.082 129.326 206.929 127.997 206.908Z" fill="url(#paint11_linear_53_719)"/>
<path d="M116.335 206.725C115.052 206.704 114.015 207.799 114.015 209.17C114.015 210.541 115.052 211.675 116.335 211.704C117.623 211.733 118.67 210.639 118.67 209.259C118.67 207.88 117.623 206.745 116.335 206.725Z" fill="url(#paint12_linear_53_719)"/>
<path d="M119.258 203.224C119.258 204.606 120.311 205.741 121.615 205.759C122.923 205.778 123.987 204.666 123.987 203.275C123.987 201.884 122.923 200.749 121.615 200.74C120.311 200.731 119.258 201.843 119.258 203.224Z" fill="#5483FC"/>
<path d="M119.258 215.56C119.258 216.942 120.311 218.095 121.615 218.135C122.923 218.176 123.987 217.081 123.987 215.691C123.987 214.3 122.923 213.148 121.615 213.116C120.311 213.084 119.258 214.179 119.258 215.56Z" fill="#5483FC"/>
<path d="M127.492 207.02C126.168 206.999 125.097 208.111 125.097 209.504C125.097 210.897 126.168 212.05 127.492 212.08C128.822 212.11 129.903 210.998 129.903 209.596C129.903 208.194 128.822 207.041 127.492 207.02Z" fill="#5483FC"/>
<path d="M115.831 206.837C114.548 206.816 113.511 207.911 113.511 209.282C113.511 210.653 114.548 211.787 115.831 211.816C117.119 211.846 118.166 210.751 118.166 209.371C118.166 207.992 117.118 206.857 115.831 206.837Z" fill="#5483FC"/>
<path d="M154.776 247.158H136.571C135.855 247.158 135.269 246.578 135.269 245.856C135.269 245.139 135.849 244.553 136.571 244.553H154.776C155.493 244.553 156.079 245.133 156.079 245.856C156.079 246.572 155.493 247.158 154.776 247.158Z" fill="#66D6A0"/>
<path d="M154.776 253.658H136.571C135.855 253.658 135.269 253.079 135.269 252.356C135.269 251.639 135.849 251.053 136.571 251.053H154.776C155.493 251.053 156.079 251.633 156.079 252.356C156.079 253.072 155.493 253.658 154.776 253.658Z" fill="#66D6A0"/>
</g>
<defs>
<filter id="filter0_d_53_719" x="56.0907" y="143.199" width="74.6135" height="61.7625" filterUnits="userSpaceOnUse" color-interpolation-filters="sRGB">
<feFlood flood-opacity="0" result="BackgroundImageFix"/>
<feColorMatrix in="SourceAlpha" type="matrix" values="0 0 0 0 0 0 0 0 0 0 0 0 0 0 0 0 0 0 127 0" result="hardAlpha"/>
<feOffset dy="4"/>
<feGaussianBlur stdDeviation="5"/>
<feColorMatrix type="matrix" values="0 0 0 0 0.0901961 0 0 0 0 0.0392157 0 0 0 0 0.396078 0 0 0 0.25 0"/>
<feBlend mode="normal" in2="BackgroundImageFix" result="effect1_dropShadow_53_719"/>
<feBlend mode="normal" in="SourceGraphic" in2="effect1_dropShadow_53_719" result="shape"/>
</filter>
<filter id="filter1_d_53_719" x="102.123" y="87.7317" width="63.6384" height="51.4045" filterUnits="userSpaceOnUse" color-interpolation-filters="sRGB">
<feFlood flood-opacity="0" result="BackgroundImageFix"/>
<feColorMatrix in="SourceAlpha" type="matrix" values="0 0 0 0 0 0 0 0 0 0 0 0 0 0 0 0 0 0 127 0" result="hardAlpha"/>
<feOffset dy="4"/>
<feGaussianBlur stdDeviation="5"/>
<feColorMatrix type="matrix" values="0 0 0 0 0.0901961 0 0 0 0 0.0392157 0 0 0 0 0.396078 0 0 0 0.25 0"/>
<feBlend mode="normal" in2="BackgroundImageFix" result="effect1_dropShadow_53_719"/>
<feBlend mode="normal" in="SourceGraphic" in2="effect1_dropShadow_53_719" result="shape"/>
</filter>
<filter id="filter2_d_53_719" x="29.9149" y="196.797" width="59.8866" height="59.8867" filterUnits="userSpaceOnUse" color-interpolation-filters="sRGB">
<feFlood flood-opacity="0" result="BackgroundImageFix"/>
<feColorMatrix in="SourceAlpha" type="matrix" values="0 0 0 0 0 0 0 0 0 0 0 0 0 0 0 0 0 0 127 0" result="hardAlpha"/>
<feOffset dy="4"/>
<feGaussianBlur stdDeviation="5"/>
<feColorMatrix type="matrix" values="0 0 0 0 0.0885677 0 0 0 0 0.0395834 0 0 0 0 0.395833 0 0 0 0.25 0"/>
<feBlend mode="normal" in2="BackgroundImageFix" result="effect1_dropShadow_53_719"/>
<feBlend mode="normal" in="SourceGraphic" in2="effect1_dropShadow_53_719" result="shape"/>
</filter>
<filter id="filter3_d_53_719" x="0" y="173.114" width="49.915" height="49.915" filterUnits="userSpaceOnUse" color-interpolation-filters="sRGB">
<feFlood flood-opacity="0" result="BackgroundImageFix"/>
<feColorMatrix in="SourceAlpha" type="matrix" values="0 0 0 0 0 0 0 0 0 0 0 0 0 0 0 0 0 0 127 0" result="hardAlpha"/>
<feOffset dy="4"/>
<feGaussianBlur stdDeviation="5"/>
<feColorMatrix type="matrix" values="0 0 0 0 0.0885677 0 0 0 0 0.0395834 0 0 0 0 0.395833 0 0 0 0.25 0"/>
<feBlend mode="normal" in2="BackgroundImageFix" result="effect1_dropShadow_53_719"/>
<feBlend mode="normal" in="SourceGraphic" in2="effect1_dropShadow_53_719" result="shape"/>
</filter>
<linearGradient id="paint0_linear_53_719" x1="171.817" y1="194.349" x2="135.648" y2="261.33" gradientUnits="userSpaceOnUse">
<stop stop-color="#276ED8"/>
<stop offset="0.9964" stop-color="#84B5FF"/>
</linearGradient>
<linearGradient id="paint1_linear_53_719" x1="140.255" y1="214.015" x2="154.9" y2="197.188" gradientUnits="userSpaceOnUse">
<stop stop-color="#84B5FF"/>
<stop offset="0.9964" stop-color="#276ED8"/>
</linearGradient>
<linearGradient id="paint2_linear_53_719" x1="169.083" y1="220.272" x2="183.939" y2="196.166" gradientUnits="userSpaceOnUse">
<stop stop-color="#84B5FF"/>
<stop offset="0.805159" stop-color="#276ED8"/>
</linearGradient>
<linearGradient id="paint3_linear_53_719" x1="137.608" y1="186.24" x2="134.363" y2="195.642" gradientUnits="userSpaceOnUse">
<stop stop-color="#AA80F9"/>
<stop offset="0.9964" stop-color="#6165D7"/>
</linearGradient>
<linearGradient id="paint4_linear_53_719" x1="164.185" y1="215.868" x2="166.781" y2="213.38" gradientUnits="userSpaceOnUse">
<stop stop-color="#AA80F9"/>
<stop offset="0.9964" stop-color="#6165D7"/>
</linearGradient>
<linearGradient id="paint5_linear_53_719" x1="169.114" y1="221.01" x2="171.71" y2="218.522" gradientUnits="userSpaceOnUse">
<stop stop-color="#AA80F9"/>
<stop offset="0.9964" stop-color="#6165D7"/>
</linearGradient>
<linearGradient id="paint6_linear_53_719" x1="169.124" y1="221.021" x2="171.72" y2="218.533" gradientUnits="userSpaceOnUse">
<stop stop-color="#AA80F9"/>
<stop offset="0.9964" stop-color="#6165D7"/>
</linearGradient>
<linearGradient id="paint7_linear_53_719" x1="164.207" y1="215.891" x2="166.804" y2="213.403" gradientUnits="userSpaceOnUse">
<stop stop-color="#AA80F9"/>
<stop offset="0.9964" stop-color="#6165D7"/>
</linearGradient>
<linearGradient id="paint8_linear_53_719" x1="116.571" y1="218.608" x2="126.896" y2="202.199" gradientUnits="userSpaceOnUse">
<stop stop-color="#84B5FF"/>
<stop offset="0.9964" stop-color="#276ED8"/>
</linearGradient>
<linearGradient id="paint9_linear_53_719" x1="109.346" y1="215.955" x2="112.886" y2="212.424" gradientUnits="userSpaceOnUse">
<stop stop-color="#AA80F9"/>
<stop offset="0.9964" stop-color="#6165D7"/>
</linearGradient>
<linearGradient id="paint10_linear_53_719" x1="115.516" y1="222.143" x2="119.057" y2="218.612" gradientUnits="userSpaceOnUse">
<stop stop-color="#AA80F9"/>
<stop offset="0.9964" stop-color="#6165D7"/>
</linearGradient>
<linearGradient id="paint11_linear_53_719" x1="115.426" y1="222.052" x2="118.966" y2="218.522" gradientUnits="userSpaceOnUse">
<stop stop-color="#AA80F9"/>
<stop offset="0.9964" stop-color="#6165D7"/>
</linearGradient>
<linearGradient id="paint12_linear_53_719" x1="109.483" y1="216.093" x2="113.024" y2="212.563" gradientUnits="userSpaceOnUse">
<stop stop-color="#AA80F9"/>
<stop offset="0.9964" stop-color="#6165D7"/>
</linearGradient>
<clipPath id="clip0_53_719">
<rect width="91.6146" height="58.5835" fill="white" transform="matrix(-1 0 0 1 198.215 195.318)"/>
</clipPath>
</defs>
</svg>
