<svg width="240" height="250" viewBox="0 0 240 250" fill="none" xmlns="http://www.w3.org/2000/svg">
<path d="M156.785 214.658C114.38 231.555 84.7215 237.959 59.4093 213.912C34.0971 189.864 29.3029 164.949 45.6211 151.719C50.6997 147.624 21.4637 125.97 21.1425 100.924C20.9539 86.223 32.4237 74.2858 43.2077 67.8785C69.1933 52.4391 90.4688 79.979 101.516 75.0403C106.339 72.9183 129.962 44.4784 171.37 43.4318C206.756 42.5374 225.182 73.3614 225.858 100.393C226.535 127.425 214.851 191.521 156.785 214.658Z" fill="url(#paint0_linear_217_3554)" fill-opacity="0.06"/>
<path d="M97.7867 89.492V141.757C97.7867 143.101 96.6981 144.19 95.354 144.19H15.6539C14.3098 144.19 13.2212 143.101 13.2212 141.757V89.492C13.2212 86.3912 15.7364 83.8721 18.8411 83.8721H92.1668C95.2715 83.8721 97.7867 86.3912 97.7867 89.492Z" fill="white" stroke="#84B5FF" stroke-miterlimit="10"/>
<path d="M97.7867 89.492V89.7278H13.2212V89.492C13.2212 86.3912 15.7364 83.8721 18.8411 83.8721H92.1668C95.2715 83.8721 97.7867 86.3912 97.7867 89.492Z" fill="#84B5FF"/>
<mask id="mask0_217_3554" style="mask-type:alpha" maskUnits="userSpaceOnUse" x="21" y="11" width="205" height="219">
<path d="M156.784 214.659C114.38 231.555 84.7208 237.96 59.4086 213.912C34.0964 189.864 29.3022 164.949 45.6204 151.719C50.699 147.624 21.4629 125.97 21.1417 100.924C20.9532 86.2233 32.423 74.2861 43.2069 67.8787C69.1925 52.4394 92.1915 16.9581 103.238 12.0194C108.062 9.89745 129.961 44.4787 171.37 43.4321C206.756 42.5377 225.181 73.3617 225.857 100.393C226.534 127.425 214.85 191.522 156.784 214.659Z" fill="#84B5FF"/>
</mask>
<g mask="url(#mask0_217_3554)">
<path d="M197.418 79.7824H185.939C185.487 79.7824 185.117 79.4169 185.117 78.961C185.117 78.5091 185.483 78.1396 185.939 78.1396H197.418C197.87 78.1396 198.239 78.5051 198.239 78.961C198.239 79.413 197.87 79.7824 197.418 79.7824Z" fill="#66D6A0"/>
<path d="M197.418 83.881H185.938C185.486 83.881 185.117 83.5155 185.117 83.0596C185.117 82.6077 185.482 82.2383 185.938 82.2383H197.418C197.87 82.2383 198.239 82.6038 198.239 83.0596C198.239 83.5116 197.87 83.881 197.418 83.881Z" fill="#66D6A0"/>
<path opacity="0.2" d="M174.326 160.921L182.205 159.439V152.375L174.326 151.017C173.721 148.115 172.573 145.398 170.992 142.99L175.512 136.358L170.51 131.357L163.978 135.976C161.57 134.395 158.865 133.259 155.951 132.654L154.469 124.775H147.405L146.047 132.654C143.145 133.259 140.428 134.407 138.02 135.988L131.401 131.468L126.399 136.469L131.018 143.002C129.437 145.41 128.301 148.127 127.696 151.029L119.817 152.511V159.575L127.696 160.933C128.301 163.847 129.45 166.552 131.03 168.96L126.511 175.579L131.512 180.58L138.057 175.962C140.465 177.542 143.182 178.691 146.084 179.284L147.566 187.162H154.629L155.988 179.284C158.902 178.679 161.607 177.53 164.015 175.949L170.634 180.469L175.635 175.468L171.017 168.935C172.585 166.539 173.721 163.835 174.326 160.921ZM151.011 170.602C142.935 170.602 136.39 164.045 136.39 155.981C136.39 147.917 142.935 141.36 151.011 141.36C159.087 141.36 165.632 147.905 165.632 155.981C165.632 164.057 159.087 170.602 151.011 170.602Z" fill="#84B5FF"/>
<mask id="mask1_217_3554" style="mask-type:alpha" maskUnits="userSpaceOnUse" x="40" y="18" width="162" height="236">
<path d="M40.9304 136.281C40.9304 201.273 76.8683 253.958 121.2 253.958C165.532 253.958 201.47 201.273 201.47 136.281C201.47 71.2902 165.532 18.6045 121.2 18.6045C76.8683 18.6045 40.9304 71.2902 40.9304 136.281Z" fill="#C4C4C4"/>
</mask>
<g mask="url(#mask1_217_3554)">
<path d="M68.2176 175.814C63.6785 175.814 60 179.492 60 184.032C60 188.571 63.6785 192.249 68.2176 192.249C72.7567 192.249 76.4352 188.571 76.4352 184.032C76.4352 179.492 72.7567 175.814 68.2176 175.814ZM68.2176 190.202C64.8064 190.202 62.0436 187.439 62.0436 184.028C62.0436 180.616 64.8064 177.854 68.2176 177.854C71.6288 177.854 74.3916 180.616 74.3916 184.028C74.3916 187.439 71.6288 190.202 68.2176 190.202Z" fill="#66D6A0"/>
<path d="M124.926 149.281C133.663 156.563 146.344 159.512 156.112 153.877C159.176 152.115 161.998 149.298 162.604 145.673C163.332 141.307 160.739 136.793 161.831 132.51C162.786 128.721 166.275 126.398 168.869 123.598C172.631 119.545 174.815 113.894 174.8 108.21C174.785 102.527 172.6 96.8926 168.823 92.8564C165.623 89.4297 161.451 87.2222 157.781 84.3556C154.884 82.0822 152.275 79.1333 150.894 75.5583C149.529 72.0328 150.652 69.957 150.849 66.4974C151.258 59.1005 149.544 50.8303 144.645 45.3279C138.304 38.178 128.885 38.2933 120.557 40.1385C116.341 41.061 111.684 42.4943 107.983 44.9325C106.405 45.9704 105.359 47.2389 104.282 48.9028C103.933 49.43 101.991 54.6853 102.067 54.6689C89.7199 57.7331 96.3485 76.3162 92.5564 84.8499C91.3581 87.5352 89.2649 89.6109 87.4295 91.835C84.2138 95.7559 81.6958 100.468 80.9071 105.64C80.1183 110.813 81.1953 116.448 84.3958 120.369C84.9115 121.011 85.5183 121.637 85.7155 122.461C86.0188 123.696 85.3818 124.932 84.9115 126.102C82.1054 133.103 85.3211 141.209 89.3711 147.452C92.0862 151.653 95.2868 155.64 99.4429 158.078C106.072 161.983 114.444 161.373 121.27 157.881" fill="url(#paint1_radial_217_3554)"/>
<g opacity="0.26">
<path opacity="0.42" d="M124.768 53.3152C120.51 51.1097 115.075 53.5621 112.443 57.7592C109.826 61.9563 106.419 65.6925 107.039 70.6797C107.348 73.1486 107.859 75.6668 107.395 78.1192C106.218 84.4725 102.533 89.114 98.6925 94.134C95.4408 98.3805 94.3879 104.026 93.5518 109.425C93.0563 112.651 92.6537 116.206 94.264 118.987C96.308 122.51 98.6461 127.052 100.845 130.459C104.468 136.039 102.347 141.487 106.729 146.425C108.03 147.873 109.857 148.63 111.653 149.239C115.292 150.441 119.054 151.149 122.863 151.363C126.115 151.544 129.413 151.33 132.479 150.194C140.004 147.379 145.037 138.393 143.674 130.031C142.637 123.695 138.533 118.428 136.582 112.321C135.189 107.943 137.914 119.639 138.859 115.129C143.674 116.087 143.674 85.665 138.859 81.625" fill="#005E30"/>
</g>
<path d="M133.359 153.532C133.798 151.792 142.619 107.627 142.619 107.627C142.619 107.627 119.096 100.679 104.043 107.627L113.683 153.913L133.359 153.532Z" fill="white"/>
<path d="M134.515 131.076C134.515 131.076 116.829 132.904 111.943 129.247C111.943 129.247 118.043 143.876 134.515 131.076Z" fill="#F4F4F4"/>
<path opacity="0.83" d="M123.415 170.548C123.726 170.276 124.803 169.336 125.803 168.428C126.985 167.35 127.73 166.392 127.73 166.392C127.73 166.392 127.903 164.399 127.989 163.848C128.077 163.292 132.325 150.507 135.11 146.78C137.709 143.304 139.1 121.641 139.278 118.714L139.296 118.387C139.296 118.387 137.378 121.37 135.762 127.65C134.143 133.935 133.035 146.644 133.035 146.644C133.035 146.644 130.211 156.618 127.164 156.329C127.164 156.329 128.642 163.426 127.115 166.63C126.823 167.239 123.969 170.03 123.415 170.548Z" fill="#CAC3CD" fill-opacity="0.3"/>
<path d="M116.433 104.65H119.144C119.144 104.65 118.28 106.985 119.353 107.571C121.647 108.822 121.856 108.822 124.984 108.822C126.842 108.822 128.113 105.068 128.113 105.068L130.408 105.485C130.408 105.485 127.987 109.895 124.984 110.908C122.9 111.611 121.274 111.978 119.353 110.908C117.125 109.668 116.433 104.65 116.433 104.65Z" fill="#CAC3CD" fill-opacity="0.3"/>
<path d="M134.119 154.845C134.119 154.845 148.426 184.82 142.589 280.214C142.589 280.214 136.43 281.515 134.484 280.857C134.484 280.857 116.827 197.956 121.114 156.337L134.119 154.845Z" fill="#47556B"/>
<path d="M112.675 155.804C112.675 155.804 98.3679 185.778 104.205 281.173C104.205 281.173 110.363 282.474 112.309 281.816C112.309 281.816 129.966 198.915 125.68 157.296L112.675 155.804Z" fill="#47556B"/>
<path d="M134.953 157.706C134.953 157.706 123.85 161.012 112.571 156.565L112.425 152.118C112.425 152.118 118.203 153.858 123.133 153.566C128.048 153.273 134.704 152.41 134.704 152.41L134.953 157.706Z" fill="#8F99B6"/>
<path d="M132.377 151.546C132.377 151.546 134.25 158.787 132.524 159.65C130.783 160.513 129.759 160.133 129.759 160.133L129.773 152.116L132.377 151.546Z" fill="#47556B"/>
<path d="M114.532 150.975C114.532 150.975 113.361 157.748 114.839 159.006C116.843 160.703 116.945 159.328 116.945 159.328L117.136 151.545L114.532 150.975Z" fill="#47556B"/>
<path d="M119.505 152.275L120.09 158.492L126.307 158.346C126.307 158.346 126.6 152.992 126.6 152.129L119.505 152.275ZM120.807 153.665H125.444L125.298 157.044L121.099 157.293L120.807 153.665Z" fill="#EAEAEA"/>
<path d="M122.491 108.8C124.73 108.8 128.226 108.127 128.226 105.874L127.655 98.3988L127.158 91.8598C127.158 89.6216 125.344 87.8076 123.106 87.8076C121.979 87.8076 120.97 88.2611 120.239 88.9925C119.507 89.724 119.054 90.7334 119.054 91.8598L118.556 98.3988L118.074 104.675C117.415 108.478 122.491 108.8 122.491 108.8Z" fill="#D8826C"/>
<path d="M141.362 71.7456C141.362 71.7456 146.204 65.1187 147.608 71.4822C148.735 76.5438 144.2 80.2741 141.406 79.3232C138.612 78.387 141.362 71.7456 141.362 71.7456Z" fill="#F0A98F"/>
<path d="M141.319 72.9276C141.319 72.9276 144.742 68.7437 145.62 70.7186C146.497 72.6789 145.985 74.9902 145.985 74.9902C145.985 74.9902 145.62 72.3424 143.528 73.5712C143.528 73.5712 145.02 77.916 141.304 76.2629C141.304 76.2629 139.841 74.8147 141.319 72.9276Z" fill="#D8826C"/>
<path d="M140.572 79.5147C140.572 80.0999 141.04 80.568 141.611 80.568C142.181 80.568 142.65 80.0999 142.65 79.5147C142.65 78.9442 142.181 78.4761 141.611 78.4761C141.04 78.4761 140.572 78.9442 140.572 79.5147Z" fill="white"/>
<path d="M113.728 57.6846C115.835 55.1684 117.78 52.1988 119.375 48.9951C124.831 56.9824 132.833 64.9697 141.011 67.8662C141.274 70.0166 141.391 72.2256 141.391 74.4199C141.391 87.2054 131.999 94.7684 121.628 94.5344C112.398 92.8512 107.306 86.623 106.092 74.4199C106.092 70.7042 106.458 66.9592 107.306 63.4922C109.661 61.8538 111.841 59.9228 113.728 57.6846Z" fill="#F0A98F"/>
<path d="M117.853 71.053C117.853 73.5253 115.834 75.5441 113.362 75.5441C110.89 75.5441 108.871 73.5399 108.871 71.053C108.871 68.5808 110.875 66.562 113.362 66.562C115.849 66.562 117.853 68.5808 117.853 71.053Z" fill="white"/>
<path d="M110.815 70.7772C110.815 72.8253 112.146 74.4783 113.785 74.4783C115.423 74.4783 116.754 72.8253 116.754 70.7772C116.754 68.7292 115.423 67.0762 113.785 67.0762C112.146 67.0762 110.815 68.7292 110.815 70.7772Z" fill="#7F5242"/>
<path d="M111.663 70.7782C111.663 72.2264 112.599 73.4114 113.769 73.4114C114.939 73.4114 115.876 72.2264 115.876 70.7782C115.876 69.3153 114.939 68.145 113.769 68.145C112.599 68.145 111.663 69.3153 111.663 70.7782Z" fill="#400404"/>
<path d="M111.532 68.273C111.532 68.6679 112.015 68.9898 112.615 68.9898C113.215 68.9898 113.697 68.6679 113.697 68.273C113.697 67.878 113.215 67.5562 112.615 67.5562C112.03 67.5562 111.532 67.878 111.532 68.273Z" fill="white"/>
<path d="M113.478 65.9214C110.523 65.6288 108.226 68.3059 108.226 71.0707C108.226 71.3633 108.577 71.4072 108.738 71.2024C109.952 69.5347 110.333 67.9109 112.556 67.2672C115.818 66.331 117.603 69.681 117.793 72.2995C117.822 72.5628 118.159 72.5482 118.188 72.2995C118.466 69.169 116.784 66.2432 113.478 65.9214Z" fill="#390A0A"/>
<path d="M123.777 79.872C123.777 79.872 121.568 83.6169 119.169 79.7988L123.777 79.872Z" fill="#D8826C"/>
<path d="M126.073 71.053C126.073 73.5253 128.077 75.5441 130.564 75.5441C133.037 75.5441 135.041 73.5399 135.041 71.053C135.041 68.5808 133.037 66.562 130.564 66.562C128.077 66.562 126.073 68.5808 126.073 71.053Z" fill="white"/>
<path d="M127.756 70.7772C127.756 72.8253 129.014 74.4783 130.565 74.4783C132.115 74.4783 133.359 72.8253 133.359 70.7772C133.359 68.7292 132.101 67.0762 130.565 67.0762C128.999 67.0762 127.756 68.7292 127.756 70.7772Z" fill="#7F5242"/>
<path d="M128.561 70.7782C128.561 72.2264 129.453 73.4114 130.551 73.4114C131.648 73.4114 132.54 72.2264 132.54 70.7782C132.54 69.3153 131.648 68.145 130.551 68.145C129.453 68.145 128.561 69.3153 128.561 70.7782Z" fill="#400404"/>
<path d="M128.43 68.291C128.43 68.686 128.898 69.0078 129.454 69.0078C130.024 69.0078 130.478 68.686 130.478 68.291C130.478 67.896 130.01 67.5742 129.454 67.5742C128.898 67.5596 128.43 67.8814 128.43 68.291Z" fill="white"/>
<path d="M130.608 65.9214C133.577 65.6288 135.86 68.3059 135.86 71.0707C135.86 71.3633 135.508 71.4072 135.362 71.2024C134.148 69.5493 133.768 67.9109 131.544 67.2672C128.282 66.331 126.497 69.681 126.307 72.3141C126.292 72.5628 125.941 72.5628 125.912 72.3141C125.619 69.169 127.302 66.2432 130.608 65.9214Z" fill="#390A0A"/>
<path d="M136.02 65.2896C136.02 65.2896 131.778 59.5697 125.224 64.4411C125.21 64.4411 130.505 62.3346 136.02 65.2896Z" fill="#99360A"/>
<path d="M117.544 64.3557C117.544 64.3557 112.585 59.4112 107.246 65.2773C107.246 65.2773 111.854 62.3223 117.544 64.3557Z" fill="#99360A"/>
<path d="M115.453 83.1624C115.512 83.3233 116.55 85.6931 118.247 87.5802C120.295 89.8477 123.265 91.1204 126.556 86.249C127.259 85.225 127.961 83.8938 128.677 82.2554C128.677 82.2554 127.536 83.0014 125.869 83.4696C123.25 84.2156 119.359 85.6054 116.653 84.1425C116.214 84.1425 115.819 83.4549 115.453 83.1624Z" fill="#712311"/>
<path d="M118.248 87.4484C120.296 89.7159 123.265 91.0617 126.557 86.1904C124.787 85.7076 120.632 84.9762 118.248 87.4484Z" fill="#D5503B"/>
<path d="M116.667 83.5698C120.968 88.368 124.098 85.8372 125.883 83.1748C123.265 83.9062 119.359 84.6669 116.667 83.5698Z" fill="white"/>
<path d="M102.122 60.5751C106.563 62.216 111.668 61.8991 115.613 59.7417C119.557 57.5844 122.245 53.6206 122.707 49.2765C122.844 48.0715 122.647 46.5818 121.492 45.9612C121.091 45.7429 120.62 45.6789 120.164 45.6457C117.376 45.4269 114.65 46.2429 112.356 47.6037C110.062 48.9645 108.201 50.8408 106.54 52.8409C105.349 54.2879 104.263 55.8195 103.564 57.5384C103.133 58.6244 102.856 59.7706 102.753 60.935" fill="url(#paint2_radial_217_3554)"/>
<path d="M118.578 52.8293C126.753 58.3339 135.745 67.5898 145.094 67.9259C145.571 67.9509 148.217 65.2767 148.446 64.9235C148.638 64.6158 148.492 64.1978 148.342 63.8282C146.756 60.1567 142.226 53.6207 138.646 51.2202C135.065 48.8197 131.059 47.1445 127.057 45.5995C125.024 44.8241 122.956 44.0621 120.857 43.8486C118.775 43.6366 116.625 44.0186 115.34 45.3022" fill="url(#paint3_linear_217_3554)"/>
<path d="M73.1625 135.792C73.1625 135.792 71.0706 135.338 70.2806 134.3C69.4761 133.276 68.9933 132.822 66.17 131.579C63.3613 130.35 62.2495 128.755 62.2495 128.755C62.2495 128.755 60.2892 130.555 64.59 132.617C67.2232 133.875 58.563 133.7 55.9591 133.407C55.9591 133.407 54.4524 134.227 56.9392 135.441C59.4408 136.655 57.0416 136.743 61.9715 138.82C66.9014 140.912 72.7529 142.009 73.9525 139.025C75.1374 136.055 73.1625 135.792 73.1625 135.792Z" fill="#FFBC9F"/>
<path d="M107.672 118.823C107.672 118.823 101.762 147.466 99.0699 149.031C96.9049 150.304 80.2867 144.891 73.9963 142.77C72.5042 142.273 71.5825 141.951 71.5825 141.951L72.6651 134.607L76.2198 135.09L93.9352 137.489C93.9352 137.489 99.9038 108.392 104.205 108.027C108.505 107.676 107.672 118.823 107.672 118.823Z" fill="white"/>
<path d="M142.72 107.828C142.72 107.828 157.494 133.686 156.084 144.258C156.084 144.258 151.455 149.212 129.963 155.266L129.578 150.09C129.578 150.09 143.12 140.981 147.516 138.933C147.516 138.933 134.887 121.177 136.287 117.478C137.673 113.776 140.392 107.416 142.72 107.828Z" fill="white"/>
<g filter="url(#filter0_d_217_3554)">
<path d="M132.414 151.175C132.346 151.32 132.278 151.463 132.209 151.606C131.503 153.082 130.063 154.289 128.475 154.369C126.183 154.485 123.766 154.41 121.539 154.227C119.688 154.076 117.92 153.52 116.001 153.696C113.761 153.902 111.579 153.801 109.491 153.487C108.609 153.354 107.685 153.221 106.835 153.023C106.408 152.923 105.965 152.851 105.546 152.737C105.298 152.67 104.792 152.546 104.841 152.208C104.845 152.183 104.851 152.155 104.839 152.136C104.83 152.119 104.809 152.113 104.789 152.107C104.381 151.984 103.955 151.869 103.593 151.676C103.291 151.513 103.466 151.114 103.602 150.806C103.68 150.63 104.024 149.818 104.529 149.637C103.693 149.333 102.795 149.118 101.968 148.791C101.966 148.79 101.964 148.79 101.964 148.789C102.144 147.937 102.591 147.077 103.281 146.358C104.702 146.754 106.124 147.151 107.544 147.548C108.298 147.759 109.101 147.969 109.967 147.753C108.662 147.561 107.462 147.122 106.448 146.465C105.594 145.912 104.854 145.204 103.891 144.806C103.902 144.766 103.917 144.725 103.929 144.684C103.959 144.623 103.99 144.561 104.024 144.502C104.212 144.167 104.437 143.863 104.694 143.55C104.85 143.357 105.016 143.17 105.188 142.987C105.444 142.813 105.726 142.658 106.019 142.517C107.397 143.306 108.796 144.068 110.341 144.618C112.278 145.307 114.467 145.654 116.781 145.244C117.249 145.161 117.723 144.981 118.144 144.696C120.409 143.168 117.642 140.505 116.753 139.5C116.789 139.448 116.829 139.396 116.874 139.344C117.367 138.774 118.178 138.405 118.868 138.138C119.221 138.001 119.578 137.885 119.934 137.775C119.958 137.811 119.982 137.849 120.008 137.887C120.46 138.528 121.391 139.692 121.925 140.268C122.957 141.383 124.439 142.037 125.211 143.391C126.269 145.247 126.582 147.003 129.263 147.182C129.605 147.205 129.945 147.228 130.287 147.251C132.318 147.385 133.328 149.225 132.414 151.175Z" fill="#84B5FF"/>
<path d="M114.765 146.053C111.827 146.604 108.627 145.97 106.563 144.607C106.018 144.246 105.496 143.856 104.924 143.528C104.398 143.228 104.745 142.869 104.713 142.947C104.919 142.271 106.466 142.471 107.3 142.925C108.497 143.578 109.184 144.035 110.355 144.538C111.174 144.888 112.61 145.083 113.529 145.266C114.445 145.45 114.671 145.295 115.691 145.141C117.512 144.865 116.968 144.652 117.923 143.951C117.923 143.951 117.495 142.238 117.447 142.045C117.261 141.306 115.506 140.599 115.873 139.773C115.916 139.678 115.972 139.597 116.041 139.501C116.59 139.289 116.427 139.293 116.605 139.33C116.479 139.219 116.782 139.366 116.605 139.33C117.134 139.796 117.526 140.354 117.9 140.946C118.487 141.876 118.968 143.752 117.853 145.015C117.031 145.946 115.876 145.845 114.765 146.053Z" fill="#06B25F"/>
<path d="M103.738 146.591C103.78 146.605 103.82 146.621 103.861 146.636C105.046 147.058 105.932 147.028 107.271 147.265C107.935 147.383 108.619 147.483 109.334 147.525C109.756 147.549 110.183 147.561 110.631 147.528C110.81 147.543 110.988 147.559 111.167 147.573C111.432 147.811 111.087 148.149 110.651 148.375C110.469 148.469 110.274 148.543 110.099 148.583C109.677 148.678 109.3 148.644 108.94 148.604C107.13 148.405 105.049 148.248 103.612 147.594C103.213 147.412 102.881 147.327 103.57 146.708C103.622 146.661 103.678 146.624 103.738 146.591Z" fill="#276ED8"/>
<path d="M110.41 150.822C110.413 150.9 110.362 150.998 110.231 151.126C110.096 151.256 109.916 151.329 109.744 151.365C109.287 151.46 108.871 151.331 108.479 151.203C107.629 150.924 106.709 150.777 105.883 150.494C105.653 150.415 104.952 150.169 105.653 149.807C105.997 149.63 106.529 149.767 106.803 149.84C107.419 150.005 108.042 150.158 108.67 150.298C108.988 150.368 109.307 150.45 109.63 150.508C109.853 150.548 110.401 150.578 110.41 150.822Z" fill="#276ED8"/>
<path d="M122.744 154.514C121.865 154.431 121.035 154.334 120.073 154.155C120.097 154.14 120.179 154.078 120.204 154.062C123.363 152.212 125.891 149.135 126.741 145.859C126.746 145.84 126.752 145.823 126.757 145.805C127.432 146.192 127.948 146.733 128.7 146.93C127.644 149.847 125.367 152.473 122.744 154.514Z" fill="#276ED8"/>
<path d="M129.561 154.81C128.446 154.751 127.736 154.69 126.629 154.606C126.675 154.576 126.723 154.548 126.774 154.521C129.669 153.014 131.4 150.187 130.976 147.52C130.963 147.437 130.959 147.357 130.965 147.279C131.815 147.199 132.695 147.339 133.522 147.352C133.729 150.018 132.772 152.606 129.561 154.81Z" fill="#276ED8"/>
<path opacity="0.33" d="M123.282 154.509C123.038 154.485 122.797 154.458 122.557 154.43C122.002 154.303 121.456 154.155 120.923 153.986C122.512 153.017 123.937 151.725 125.055 150.246C125.535 150.4 126.034 150.522 126.536 150.635C126.68 150.691 126.825 150.745 126.97 150.797C125.92 152.17 124.649 153.424 123.282 154.509Z" fill="white"/>
<path opacity="0.33" d="M127.219 149.491C127.143 149.608 127.066 149.723 126.986 149.839C126.336 149.572 125.684 149.294 124.998 149.085C125.041 149.018 125.082 148.95 125.123 148.882C125.818 149.091 126.516 149.293 127.219 149.491Z" fill="white"/>
<path opacity="0.33" d="M131.472 150.637C131.933 150.745 132.405 150.844 132.894 150.897C132.836 151.035 132.775 151.172 132.706 151.31C131.928 151.111 131.136 150.939 130.347 150.763C130.402 150.644 130.452 150.526 130.497 150.405C130.823 150.483 131.147 150.561 131.472 150.637Z" fill="white"/>
<path opacity="0.33" d="M130.533 151.725C131.252 151.905 131.973 152.078 132.687 152.268C132.083 153.158 131.247 154.01 130.127 154.808C129.072 154.742 128.401 154.678 127.354 154.587C127.399 154.558 127.444 154.529 127.493 154.503C128.769 153.812 129.813 152.838 130.533 151.725Z" fill="white"/>
<path d="M129.656 155.696C128.866 155.896 127.958 156.021 127.008 156.037C124.966 156.071 123.029 156.127 122.493 155.431C122.33 155.22 122.577 154.462 122.634 154.218C122.879 153.169 125.235 152.283 127.896 152.238C129.528 152.211 130.84 152.471 131.665 152.89C131.796 152.956 131.993 153.124 131.978 153.299C131.969 153.401 131.821 154.109 131.639 154.256C131.038 154.741 130.266 155.229 129.656 155.696Z" fill="#194484"/>
<path d="M129.19 156.132C128.703 156.479 128.153 156.695 127.622 156.735C127.414 156.75 127.202 156.761 126.987 156.767C124.352 156.837 122.401 156.134 122.63 155.195C122.859 154.256 125.181 153.438 127.817 153.369C129.579 153.322 131.034 153.621 131.736 154.107C131.801 154.152 131.785 154.261 131.702 154.323C130.877 154.943 130.032 155.533 129.19 156.132Z" fill="#06B25F"/>
<path opacity="0.33" d="M116.955 148.241C118.696 148.098 119.942 149.062 119.739 150.394C119.536 151.726 117.96 152.921 116.22 153.064C114.479 153.207 113.233 152.243 113.436 150.911C113.639 149.579 115.214 148.383 116.955 148.241Z" fill="white"/>
<path d="M118.823 150.464C118.963 149.643 118.077 149.062 116.844 149.166C115.61 149.27 114.496 150.02 114.357 150.841C114.217 151.662 115.103 152.243 116.336 152.139C117.568 152.034 118.682 151.284 118.823 150.464Z" fill="#276ED8"/>
<path opacity="0.33" d="M117.796 150.551C117.872 150.107 117.392 149.793 116.726 149.85C116.06 149.906 115.458 150.311 115.382 150.755C115.306 151.198 115.786 151.512 116.451 151.455C117.119 151.399 117.72 150.994 117.796 150.551Z" fill="white"/>
<path opacity="0.33" d="M108.435 146.184C108.491 145.858 108.139 145.626 107.647 145.668C107.157 145.709 106.713 146.007 106.658 146.334C106.602 146.66 106.955 146.892 107.446 146.85C107.936 146.809 108.38 146.511 108.435 146.184Z" fill="white"/>
<path opacity="0.33" d="M119.139 141.3C119.536 140.994 119.646 140.487 119.384 140.167C119.123 139.847 118.587 139.835 118.19 140.141C117.792 140.447 117.683 140.955 117.944 141.275C118.206 141.595 118.741 141.606 119.139 141.3Z" fill="white"/>
<path opacity="0.33" d="M106.218 148.423C106.657 148.389 106.977 148.588 106.933 148.868C106.889 149.148 106.497 149.404 106.058 149.438C105.619 149.473 105.299 149.274 105.343 148.993C105.387 148.713 105.779 148.458 106.218 148.423Z" fill="white"/>
<path opacity="0.33" d="M108.106 151.532C108.169 151.23 107.834 151.03 107.356 151.087C106.878 151.145 106.439 151.436 106.376 151.739C106.312 152.041 106.647 152.241 107.125 152.184C107.604 152.127 108.041 151.835 108.106 151.532Z" fill="white"/>
<path d="M129.434 156.076C129.294 156.089 129.149 156.098 129.002 156.1C127.893 156.119 127.072 155.814 127.166 155.419C127.262 155.024 128.237 154.688 129.345 154.669C130.072 154.656 130.672 154.785 130.975 154.985C130.463 155.352 129.949 155.714 129.434 156.076Z" fill="#194484"/>
<path d="M125.243 155.626L124.692 155.496L123.938 156.079L123.913 156.24L125.218 155.788L125.243 155.626Z" fill="#194484"/>
<path d="M125.265 155.789L124.706 155.655L123.947 156.238L124.505 156.372L125.265 155.789Z" fill="#194484"/>
<path d="M126.135 154.802L125.583 154.671L124.829 155.255L124.804 155.416L126.108 154.964L126.135 154.802Z" fill="#194484"/>
<path d="M126.157 154.968L125.599 154.833L124.84 155.416L125.398 155.55L126.157 154.968Z" fill="#194484"/>
<path d="M127.038 153.968L126.486 153.837L125.733 154.421L125.707 154.582L127.012 154.129L127.038 153.968Z" fill="#194484"/>
<path d="M127.062 154.134L126.503 154L125.744 154.583L126.302 154.717L127.062 154.134Z" fill="#194484"/>
<path d="M106.162 151.987C106.157 151.986 106.153 151.987 106.149 151.986C106.131 151.986 106.179 151.986 106.162 151.987Z" fill="#194484"/>
<path opacity="0.43" d="M109.818 152.813C108.813 152.844 107.199 152.751 106.198 152.659C106.183 152.591 106.167 152.522 106.154 152.452C107.217 152.54 109.166 152.655 110.175 152.712C110.123 152.727 109.883 152.81 109.818 152.813Z" fill="#276ED8"/>
</g>
<path d="M105.186 71.8994C105.178 72.3982 104.772 72.8041 104.266 72.8041L103.295 72.7956C102.796 72.7872 102.391 72.3813 102.391 71.874L102.45 65.558C102.459 65.0592 102.864 64.6533 103.371 64.6533L104.333 64.6618C104.832 64.6702 105.237 65.0761 105.237 65.5834L105.186 71.8994Z" fill="#002E73"/>
<path d="M143.388 72.2793C143.379 72.7781 142.974 73.184 142.467 73.184L141.505 73.1755C140.998 73.1671 140.601 72.7612 140.601 72.2539L140.66 65.9379C140.669 65.4391 141.074 65.0332 141.581 65.0332L142.543 65.0417C143.05 65.0501 143.447 65.456 143.447 65.9633L143.388 72.2793Z" fill="#002E73"/>
<path d="M119.938 57.5849L120.478 48.7915L125.992 48.8507L126.642 57.6525L119.938 57.5849Z" fill="#070059"/>
<path d="M140.625 61.466C140.583 65.4146 132.763 68.5345 123.137 68.4331C113.519 68.3401 105.758 65.0595 105.792 61.1194C105.834 57.1708 113.662 54.0508 123.272 54.1523C132.898 54.2453 140.667 57.5175 140.625 61.466Z" fill="#002E73"/>
<path d="M115.429 58.7943C122.024 58.6844 129.025 58.4138 135.603 59.2762C137.705 59.5975 140.087 60.5361 141.978 61.872V61.7536C142.003 59.1917 139.951 57.0948 137.393 57.0694L108.75 56.782C106.191 56.7566 104.097 58.8112 104.072 61.3731V61.6183C106.782 58.6506 111.528 58.8619 115.429 58.7943Z" fill="white"/>
<path d="M127.47 77.869C126.618 77.5224 126.001 76.9474 125.098 76.6515C124.135 76.3556 123.054 76.3471 122.091 76.3978C121.526 76.4486 120.892 76.4993 120.436 76.7191C119.584 76.9982 118.95 77.7845 117.979 77.9451C117.126 78.1058 112.524 78.0635 111.274 77.8775C109.915 77.6915 108.327 77.2772 107.078 76.8121C106.258 76.4908 104.781 75.5185 103.979 74.4785C104.063 76.9474 106.064 78.9344 108.555 78.9598C111.097 78.9851 117.244 79.2472 117.751 79.1796C118.368 79.095 118.553 78.6638 118.992 78.2749C120.04 77.3533 121.517 76.939 122.894 76.9474C124.245 76.9643 125.672 77.3871 126.702 78.2918C127.107 78.6469 127.31 79.1373 127.867 79.2303C128.746 79.391 136.041 79.2303 137.19 79.2388C139.723 79.2641 141.8 77.2434 141.86 74.7237C140.872 75.6707 139.656 76.66 138.389 77.1757C135.932 78.2411 128.374 78.3341 127.47 77.869Z" fill="white"/>
<path d="M141.985 61.8802C140.094 60.5443 137.713 59.5973 135.61 59.2845C129.024 58.422 122.032 58.6926 115.437 58.8025C111.527 58.8617 106.781 58.6503 104.088 61.6265L103.961 74.2839C103.961 74.3516 103.969 74.4192 103.969 74.4869C104.772 75.5268 106.258 76.4992 107.068 76.8205C108.318 77.2855 109.906 77.6998 111.265 77.8858C112.515 78.0718 117.117 78.1141 117.97 77.9535C118.941 77.7928 119.574 76.998 120.427 76.7275C120.883 76.5076 121.508 76.4569 122.082 76.4062C123.045 76.3554 124.126 76.3724 125.088 76.6598C125.992 76.9558 126.617 77.5307 127.461 77.8774C128.365 78.3424 135.931 78.2494 138.38 77.1925C139.638 76.6852 140.854 75.6875 141.85 74.7405C141.85 74.7151 141.85 74.6898 141.85 74.6644L141.985 61.8802Z" fill="#0B51B9"/>
<mask id="mask2_217_3554" style="mask-type:alpha" maskUnits="userSpaceOnUse" x="103" y="58" width="39" height="21">
<path d="M141.985 61.8802C140.094 60.5443 137.713 59.5973 135.61 59.2845C129.024 58.422 122.032 58.6926 115.437 58.8025C111.527 58.8617 106.781 58.6503 104.088 61.6265L103.961 74.2839C103.961 74.3516 103.969 74.4192 103.969 74.4869C104.772 75.5268 106.258 76.4992 107.068 76.8205C108.318 77.2855 109.906 77.6998 111.265 77.8858C112.515 78.0718 117.117 78.1141 117.97 77.9535C118.941 77.7928 119.574 76.998 120.427 76.7275C120.883 76.5076 121.508 76.4569 122.082 76.4062C123.045 76.3554 124.126 76.3724 125.088 76.6598C125.992 76.9558 126.617 77.5307 127.461 77.8774C128.365 78.3424 135.931 78.2494 138.38 77.1925C139.638 76.6852 140.854 75.6875 141.85 74.7405C141.85 74.7151 141.85 74.6898 141.85 74.6644L141.985 61.8802Z" fill="#0B51B9"/>
</mask>
<g mask="url(#mask2_217_3554)">
<g opacity="0.2">
<path opacity="0.2" d="M143.649 45.1465L91.0073 77.5382L91.0327 75.5597L143.674 43.168L143.649 45.1465Z" fill="white"/>
<path opacity="0.2" d="M143.514 59.038L90.8726 91.4298L90.9992 78.7301L143.641 46.3384L143.514 59.038Z" fill="white"/>
<path opacity="0.2" d="M143.455 64.8385L90.813 97.2302L90.8468 93.9074L143.488 61.5156L143.455 64.8385Z" fill="white"/>
<path opacity="0.2" d="M143.429 67.6544L90.7876 100.046L90.8045 98.6256L143.446 66.2339L143.429 67.6544Z" fill="white"/>
</g>
</g>
</g>
</g>
<path d="M68.8812 120.567V118.568C68.8812 118.2 68.5833 117.902 68.2151 117.902C67.847 117.902 67.5491 118.2 67.5491 118.568V118.588C66.3485 116.727 65.0424 115.06 64.3269 114.183C64.0947 113.897 63.6752 113.853 63.3903 114.088C63.1048 114.32 63.0625 114.74 63.2954 115.024C64.595 116.618 65.6223 118.031 66.4236 119.268C66.0716 119.155 65.7008 119.342 65.5855 119.69C65.4691 120.039 65.6577 120.416 66.0064 120.532L67.4785 121.023C68.9455 123.692 69.1062 125.236 68.6633 125.678C68.1912 126.15 66.4571 125.987 63.1276 123.978C61.1098 122.761 58.8629 121.081 56.5663 119.091C57.5093 118.238 58.4547 117.34 59.3909 116.404C62.7299 113.064 65.5862 109.612 67.5491 106.569V106.577C67.5491 106.945 67.847 107.243 68.2152 107.243C68.5833 107.243 68.8813 106.945 68.8813 106.577V104.578C68.8813 104.516 68.8553 104.46 68.8387 104.401C70.3687 101.52 70.6272 99.5462 69.6052 98.5245C67.624 96.5435 62.3856 99.8783 59.4392 102.043C59.1425 102.26 59.0788 102.677 59.2967 102.974C59.5133 103.269 59.9302 103.333 60.2274 103.116C65.0139 99.6012 67.9576 98.7593 68.6633 99.4665C69.0915 99.8948 68.9827 101.374 67.4633 104.127L66.0064 104.613C65.6578 104.728 65.4692 105.106 65.5856 105.455C65.6994 105.798 66.0623 105.983 66.4101 105.878C64.4996 108.834 61.7128 112.197 58.4493 115.462C57.4908 116.42 56.5239 117.334 55.5608 118.202C54.5977 117.334 53.6307 116.42 52.6723 115.462C49.4086 112.197 46.6217 108.834 44.7112 105.878C45.0591 105.983 45.4219 105.798 45.5358 105.455C45.6522 105.106 45.4635 104.728 45.1149 104.613L43.6581 104.127C42.1386 101.374 42.0299 99.8948 42.4579 99.4665C43.1656 98.7587 46.1101 99.6019 50.9003 103.121C51.1956 103.339 51.6139 103.275 51.8311 102.979C52.049 102.683 51.9852 102.266 51.6886 102.048C48.741 99.8803 43.4961 96.5416 41.5161 98.5245C40.4941 99.5462 40.7527 101.52 42.2827 104.401C42.266 104.46 42.2401 104.516 42.2401 104.578V106.577C42.2401 106.945 42.538 107.243 42.9061 107.243C43.2743 107.243 43.5722 106.945 43.5722 106.577V106.569C45.5351 109.612 48.3915 113.064 51.7304 116.404C52.6666 117.34 53.6121 118.238 54.5551 119.091C52.2585 121.081 50.0116 122.761 47.9937 123.978C44.661 125.988 42.9276 126.147 42.458 125.678C42.0155 125.236 42.1761 123.692 43.6431 121.023L45.115 120.532C45.4636 120.416 45.6522 120.039 45.5358 119.69C45.4205 119.343 45.05 119.156 44.6983 119.268C45.4962 118.037 46.5173 116.631 47.809 115.046C48.0413 114.761 47.9983 114.341 47.7134 114.108C47.4292 113.877 47.0096 113.921 46.7762 114.204C46.0645 115.077 44.7668 116.735 43.5722 118.587V118.568C43.5722 118.2 43.2743 117.902 42.9061 117.902C42.538 117.902 42.2401 118.2 42.2401 118.568V120.567C42.2401 120.638 42.2671 120.703 42.2889 120.77C41.04 123.132 40.3453 125.45 41.5161 126.62C41.9246 127.029 42.4846 127.233 43.1942 127.233C44.5133 127.233 46.3487 126.527 48.6818 125.12C50.8004 123.841 53.1591 122.071 55.5606 119.979C57.9621 122.071 60.3208 123.841 62.4394 125.12C64.7725 126.527 66.6079 127.233 67.9276 127.233C68.6365 127.233 69.1965 127.029 69.605 126.62C70.7758 125.45 70.0819 123.133 68.8322 120.77C68.8541 120.703 68.8812 120.638 68.8812 120.567Z" fill="#06B25F"/>
<path d="M48.8984 106.579C48.8984 106.947 49.1964 107.245 49.5647 107.245C49.9329 107.245 50.2309 106.947 50.2309 106.579C50.2309 106.212 50.5295 105.913 50.8972 105.913C51.2647 105.913 51.5634 106.212 51.5634 106.579C51.5634 106.947 51.2648 107.245 50.8972 107.245C50.5289 107.245 50.2309 107.543 50.2309 107.912C50.2309 108.28 50.5289 108.578 50.8972 108.578C51.2647 108.578 51.5634 108.877 51.5634 109.244C51.5634 109.612 51.2648 109.91 50.8972 109.91C50.5296 109.91 50.2309 109.612 50.2309 109.244C50.2309 108.876 49.9329 108.578 49.5647 108.578C49.1964 108.578 48.8984 108.876 48.8984 109.244C48.8984 110.346 49.795 111.243 50.8971 111.243C51.9992 111.243 52.8958 110.346 52.8958 109.244C52.8958 108.733 52.7025 108.266 52.3857 107.912C52.7025 107.558 52.8958 107.091 52.8958 106.579C52.8958 105.477 51.9992 104.581 50.8971 104.581C49.795 104.581 48.8984 105.477 48.8984 106.579Z" fill="#06B25F"/>
<path d="M60.2238 111.242C61.3259 111.242 62.2224 110.346 62.2224 109.244V106.579C62.2224 105.477 61.3259 104.58 60.2238 104.58C59.1216 104.58 58.2251 105.477 58.2251 106.579V109.244C58.2251 110.346 59.1216 111.242 60.2238 111.242ZM59.5576 106.579C59.5576 106.211 59.8562 105.913 60.2238 105.913C60.5914 105.913 60.8901 106.211 60.8901 106.579V109.244C60.8901 109.611 60.5914 109.91 60.2238 109.91C59.8563 109.91 59.5576 109.611 59.5576 109.244V106.579Z" fill="#06B25F"/>
<path d="M55.5602 111.242C56.6623 111.242 57.5588 110.346 57.5588 109.244C57.5588 108.141 56.6623 107.245 55.5602 107.245C55.3555 107.245 55.1618 107.285 54.9757 107.342C55.1262 106.736 55.5675 105.913 56.8926 105.913C57.2608 105.913 57.5588 105.615 57.5588 105.246C57.5588 104.878 57.2608 104.58 56.8926 104.58C54.2576 104.58 53.5615 106.759 53.5615 107.911V109.244C53.5615 110.346 54.458 111.242 55.5602 111.242ZM55.5602 108.577C55.9277 108.577 56.2264 108.876 56.2264 109.244C56.2264 109.611 55.9278 109.91 55.5602 109.91C55.1926 109.91 54.8939 109.611 54.8939 109.244C54.8939 108.876 55.1926 108.577 55.5602 108.577Z" fill="#06B25F"/>
<path d="M64.8875 104.581C64.8875 103.846 64.2896 103.249 63.5551 103.249C62.8206 103.249 62.2227 103.846 62.2227 104.581C62.2227 105.315 62.8205 105.913 63.5551 105.913C64.2896 105.913 64.8875 105.315 64.8875 104.581Z" fill="#06B25F"/>
<defs>
<filter id="filter0_d_217_3554" x="93.9639" y="133.775" width="47.5854" height="34.9966" filterUnits="userSpaceOnUse" color-interpolation-filters="sRGB">
<feFlood flood-opacity="0" result="BackgroundImageFix"/>
<feColorMatrix in="SourceAlpha" type="matrix" values="0 0 0 0 0 0 0 0 0 0 0 0 0 0 0 0 0 0 127 0" result="hardAlpha"/>
<feOffset dy="4"/>
<feGaussianBlur stdDeviation="4"/>
<feColorMatrix type="matrix" values="0 0 0 0 0.0771528 0 0 0 0 0.152763 0 0 0 0 0.420833 0 0 0 0.25 0"/>
<feBlend mode="normal" in2="BackgroundImageFix" result="effect1_dropShadow_217_3554"/>
<feBlend mode="normal" in="SourceGraphic" in2="effect1_dropShadow_217_3554" result="shape"/>
</filter>
<linearGradient id="paint0_linear_217_3554" x1="87.6021" y1="44.2155" x2="58.2974" y2="203.08" gradientUnits="userSpaceOnUse">
<stop offset="0.0041841" stop-color="#0214BE"/>
<stop offset="0.2856" stop-color="#0016D9"/>
<stop offset="1" stop-color="#2051FE"/>
</linearGradient>
<radialGradient id="paint1_radial_217_3554" cx="0" cy="0" r="1" gradientUnits="userSpaceOnUse" gradientTransform="translate(87.178 142.334) rotate(-58.9328) scale(117.693 91.05)">
<stop stop-color="#0F7C47"/>
<stop offset="1" stop-color="#3EE695"/>
</radialGradient>
<radialGradient id="paint2_radial_217_3554" cx="0" cy="0" r="1" gradientUnits="userSpaceOnUse" gradientTransform="translate(102.665 60.5368) rotate(-41.9924) scale(22.631 26.1977)">
<stop stop-color="#21B16C"/>
<stop offset="1" stop-color="#39DB8D"/>
</radialGradient>
<linearGradient id="paint3_linear_217_3554" x1="116.099" y1="44.4147" x2="146.673" y2="63.2136" gradientUnits="userSpaceOnUse">
<stop stop-color="#29CF7F"/>
<stop offset="1" stop-color="#36D387"/>
</linearGradient>
</defs>
</svg>
