<svg width="259" height="200" viewBox="0 0 259 200" fill="none" xmlns="http://www.w3.org/2000/svg">
<path opacity="0.2" d="M252.008 70.2985L258.234 69.1274V63.5453L252.008 62.4718C251.53 60.1785 250.622 58.0315 249.373 56.1285L252.945 50.888L248.992 46.9356L243.83 50.5855C241.927 49.3363 239.79 48.4385 237.487 47.9603L236.316 41.7341H230.734L229.66 47.9603C227.367 48.4385 225.22 49.3461 223.317 50.5952L218.086 47.0235L214.134 50.9758L217.783 56.1383C216.534 58.0413 215.636 60.1882 215.158 62.4816L208.932 63.6526V69.2347L215.158 70.3082C215.636 72.6113 216.544 74.7485 217.793 76.6515L214.221 81.8823L218.174 85.8347L223.346 82.1848C225.249 83.434 227.396 84.3415 229.689 84.81L230.86 91.0362H236.442L237.516 84.81C239.819 84.3318 241.956 83.4242 243.859 82.1751L249.09 85.7468L253.042 81.7945L249.393 76.632C250.632 74.7388 251.53 72.6016 252.008 70.2985ZM233.583 77.9495C227.201 77.9495 222.029 72.7675 222.029 66.3949C222.029 60.0223 227.201 54.8404 233.583 54.8404C239.965 54.8404 245.138 60.0126 245.138 66.3949C245.138 72.7772 239.965 77.9495 233.583 77.9495Z" fill="#84B5FF"/>
<path d="M127.477 79.5098V141.861C127.477 144.964 130.001 147.483 133.112 147.483H210.442C213.552 147.483 216.077 144.964 216.077 141.861V79.5098C216.077 76.4066 213.552 73.8875 210.442 73.8875H133.106C129.995 73.8935 127.477 76.4066 127.477 79.5098ZM210.521 144.599H171.777H133.032C131.88 144.599 130.947 143.668 130.947 142.518V78.8527C130.947 77.7026 131.88 76.7717 133.032 76.7717H210.521C211.674 76.7717 212.607 77.7026 212.607 78.8527V142.518C212.607 143.668 211.674 144.599 210.521 144.599Z" fill="#66D6A0"/>
<path d="M208.868 3.1499C200.615 3.1499 193.927 9.83783 193.927 18.0906C193.927 26.3433 200.615 33.0312 208.868 33.0312C217.121 33.0312 223.809 26.3433 223.809 18.0906C223.809 9.83783 217.121 3.1499 208.868 3.1499ZM208.868 29.3086C202.666 29.3086 197.643 24.2855 197.643 18.0834C197.643 11.8814 202.666 6.85827 208.868 6.85827C215.07 6.85827 220.093 11.8814 220.093 18.0834C220.093 24.2855 215.07 29.3086 208.868 29.3086Z" fill="#66D6A0"/>
<path d="M175.832 28.0228V123.047C175.832 125.491 173.853 127.47 171.409 127.47H26.5038C24.0602 127.47 22.0809 125.491 22.0809 123.047V28.0228C22.0809 22.3853 26.6539 17.8052 32.2986 17.8052H165.614C171.259 17.8052 175.832 22.3853 175.832 28.0228Z" fill="white" stroke="#84B5FF" stroke-miterlimit="10"/>
<path d="M93.2826 40.5349H76.0365V41.9842H93.2826V40.5349Z" fill="#84B5FF"/>
<path d="M113.511 40.5347H96.2651V41.984H113.511V40.5347Z" fill="#06B25F"/>
<path d="M108.108 48.3562H81.365V49.8055H108.108V48.3562Z" fill="#276ED8"/>
<path d="M136.116 48.3562H122.526V49.8055H136.116V48.3562Z" fill="#84B5FF"/>
<path d="M102.38 56.1672H90.6371V57.6165H102.38V56.1672Z" fill="#06B25F"/>
<path d="M158.129 56.1672H119.169V57.6165H158.129V56.1672Z" fill="#06B25F"/>
<path d="M154.285 63.9846H109.76V65.4339H154.285V63.9846Z" fill="#276ED8"/>
<path d="M102.33 71.7964H88.6281V73.2457H102.33V71.7964Z" fill="#84B5FF"/>
<path d="M131.897 71.7964H118.195V73.2457H131.897V71.7964Z" fill="#276ED8"/>
<path d="M95.9662 112.352H76.037V113.802H95.9662V112.352Z" fill="#84B5FF"/>
<path d="M132.871 112.352H112.942V113.802H132.871V112.352Z" fill="#06B25F"/>
<path d="M159.065 112.352H139.135V113.802H159.065V112.352Z" fill="#84B5FF"/>
<path d="M120.326 104.528H81.3662V105.977H120.326V104.528Z" fill="#276ED8"/>
<path d="M175.35 104.528H136.39V105.977H175.35V104.528Z" fill="#84B5FF"/>
<path d="M129.299 96.7192H90.6382V98.1685H129.299V96.7192Z" fill="#84B5FF"/>
<path d="M153.424 96.7192H142.667V98.1685H153.424V96.7192Z" fill="#06B25F"/>
<path d="M102.668 88.8989H88.1169V90.3482H102.668V88.8989Z" fill="#06B25F"/>
<path d="M134.943 88.8989H120.392V90.3482H134.943V88.8989Z" fill="#276ED8"/>
<path d="M158.865 88.8989H144.315V90.3482H158.865V88.8989Z" fill="#84B5FF"/>
<path d="M135.392 81.0908H114.989V82.5401H135.392V81.0908Z" fill="#06B25F"/>
<path d="M97.2886 81.0908H76.8853V82.5401H97.2886V81.0908Z" fill="#276ED8"/>
<path d="M71.2323 39.1489H69.3729V41.0105H71.2323V39.1489Z" fill="#84B5FF"/>
<path d="M71.2313 107.292H69.3719V103.506H71.2313V107.292ZM71.2313 97.8214H69.3719V94.0358H71.2313V97.8214ZM71.2313 88.351H69.3719V84.5653H71.2313V88.351ZM71.2313 78.8805H69.3719V75.0948H71.2313V78.8805ZM71.2313 69.41H69.3719V65.6243H71.2313V69.41ZM71.2313 59.9395H69.3719V56.1538H71.2313V59.9395ZM71.2313 50.469H69.3719V46.6833H71.2313V50.469Z" fill="#84B5FF"/>
<path d="M71.2319 112.975H69.3726V114.837H71.2319V112.975Z" fill="#84B5FF"/>
<path opacity="0.7" d="M21.7305 31.3003C21.7305 27.9866 24.4168 25.3003 27.7305 25.3003H61.7437V127.477H27.7305C24.4168 127.477 21.7305 124.791 21.7305 121.477V31.3003Z" fill="#84B5FF"/>
<path d="M42.1768 41.9653H24.9307V43.4146H42.1768V41.9653Z" fill="#06B25F"/>
<path d="M55.3767 50.8213H28.6339V52.2706H55.3767V50.8213Z" fill="#84B5FF"/>
<path d="M55.3767 59.6787H28.6339V61.128H55.3767V59.6787Z" fill="#84B5FF"/>
<path d="M55.3767 68.5359H28.6339V69.9852H55.3767V68.5359Z" fill="#84B5FF"/>
<path d="M55.3767 77.3906H28.6339V78.8399H55.3767V77.3906Z" fill="#84B5FF"/>
<path d="M56.7652 95.103H30.0225V96.5523H56.7652V95.103Z" fill="#84B5FF"/>
<path d="M56.7652 103.961H30.0225V105.41H56.7652V103.961Z" fill="#84B5FF"/>
<path d="M56.7652 112.815H30.0225V114.264H56.7652V112.815Z" fill="#84B5FF"/>
<path d="M42.1768 86.2468H24.9307V87.6961H42.1768V86.2468Z" fill="#06B25F"/>
<path d="M175.832 28.0228V28.4516H22.0809V28.0228C22.0809 22.3853 26.6539 17.8052 32.2986 17.8052H165.614C171.259 17.8052 175.832 22.3853 175.832 28.0228Z" fill="#84B5FF"/>
<path opacity="0.3" d="M162.481 23.6215C162.481 24.3575 161.888 24.9505 161.152 24.9505C160.416 24.9505 159.823 24.3575 159.823 23.6215C159.823 22.8855 160.416 22.2925 161.152 22.2925C161.881 22.2925 162.481 22.8855 162.481 23.6215Z" fill="white"/>
<path opacity="0.3" d="M169.756 23.6215C169.756 24.3575 169.163 24.9505 168.427 24.9505C167.691 24.9505 167.098 24.3575 167.098 23.6215C167.098 22.8855 167.691 22.2925 168.427 22.2925C169.156 22.2925 169.756 22.8855 169.756 23.6215Z" fill="white"/>
<path opacity="0.3" d="M176.708 23.6215C176.708 24.3575 176.115 24.9505 175.379 24.9505C174.643 24.9505 174.05 24.3575 174.05 23.6215C174.05 22.8855 174.643 22.2925 175.379 22.2925C176.115 22.2925 176.708 22.8855 176.708 23.6215Z" fill="white"/>
<path d="M175.832 28.0228V123.047C175.832 125.491 173.853 127.47 171.409 127.47H26.5038C24.0602 127.47 22.0809 125.491 22.0809 123.047V28.0228C22.0809 22.3853 26.6539 17.8052 32.2986 17.8052H165.614C171.259 17.8052 175.832 22.3853 175.832 28.0228Z" stroke="#84B5FF" stroke-miterlimit="10"/>
<g filter="url(#filter0_d_53_824)">
<rect x="162.489" y="64.5989" width="75.7394" height="33.8302" rx="6" fill="#84B5FF"/>
</g>
<path d="M188.501 88.0555L184.629 81.5039L188.501 74.9523L190.368 81.5039L188.501 88.0555ZM179.882 87.4162L175.016 82.5625H182.762L186.634 89.114L179.882 87.4162ZM179.882 75.5716L186.615 73.8737L182.742 80.4253H174.996L179.882 75.5716ZM189.772 70.658L180.974 72.9551L179.663 75.2121L177.022 75.192L170.567 81.5039L177.022 87.8158L179.663 87.7958L180.974 90.0528L189.772 92.3699L192.136 83.7609L190.805 81.524L192.136 79.2868L189.772 70.658ZM209.752 77.0298C208.58 77.0298 207.786 77.529 207.19 78.4479H207.15V77.2695H205.085V85.9382H207.19V81.0245C207.19 79.8461 207.925 79.027 208.938 79.027C209.891 79.027 210.606 79.6064 210.606 80.6251V85.9582H212.711V80.2854C212.731 78.3879 211.539 77.0298 209.752 77.0298ZM201.887 82.2829C201.887 83.4415 201.232 84.2403 200.159 84.2403C199.186 84.2403 198.571 83.6812 198.571 82.6625V77.2695H196.465V83.0619C196.465 84.9594 197.538 86.1979 199.464 86.1979C200.676 86.1979 201.351 85.7384 201.927 84.9395H201.987V85.9582H204.012V77.2695H201.907V82.2829H201.887ZM213.843 77.2695H215.949V85.9382H213.843V77.2695ZM213.843 74.573H215.949V76.3107H213.843V74.573ZM227.885 77.2695L226.634 81.1842C226.356 81.9833 226.137 83.0819 226.137 83.0819H226.077C226.077 83.0819 225.799 81.9833 225.521 81.1842L224.111 77.2695H221.847L224.171 83.4415C224.667 84.7598 224.826 85.3189 224.826 85.7983C224.826 86.5173 224.449 86.9769 223.555 86.9769H222.741V88.7944H224.091C225.839 88.7944 226.455 88.0954 227.11 86.1779L230.149 77.2893H227.885V77.2695ZM219.881 83.4014V78.8074H221.232V77.2893H219.881V74.573H217.776V77.2695H216.584V78.7874H217.776V83.8808C217.776 85.5187 219.007 85.9582 220.119 85.9582C221.033 85.9582 221.271 85.9181 221.271 85.9181V84.2403H220.735C220.238 84.2603 219.881 84.0407 219.881 83.4014Z" fill="white"/>
<g filter="url(#filter1_d_53_824)">
<path d="M85.1523 133.596L93.1832 132.086V124.885L85.1523 123.501C84.5355 120.543 83.3648 117.773 81.7536 115.319L86.3607 108.559L81.2627 103.461L74.6039 108.169C72.1493 106.558 69.3926 105.4 66.422 104.783L64.9114 96.7522H57.7113L56.3267 104.783C53.3687 105.4 50.5994 106.571 48.1448 108.182L41.3978 103.575L36.2999 108.673L41.0076 115.331C39.3964 117.786 38.2384 120.555 37.6216 123.513L29.5907 125.024V132.224L37.6216 133.609C38.2384 136.579 39.409 139.336 41.0202 141.791L36.4132 148.538L41.5111 153.635L48.1826 148.928C50.6371 150.539 53.4064 151.71 56.3645 152.314L57.875 160.345H65.0751L66.4597 152.314C69.4304 151.697 72.1871 150.526 74.6417 148.915L81.3886 153.522L86.4866 148.424L81.7788 141.765C83.3774 139.323 84.5355 136.567 85.1523 133.596ZM61.3869 143.465C53.1546 143.465 46.4832 136.781 46.4832 128.561C46.4832 120.341 53.1546 113.657 61.3869 113.657C69.6192 113.657 76.2906 120.329 76.2906 128.561C76.2906 136.793 69.6192 143.465 61.3869 143.465Z" fill="#276ED8"/>
</g>
<g filter="url(#filter2_d_53_824)">
<path d="M119.397 177.009L123.581 178.475L125.537 175.099L122.137 172.268C122.649 170.711 122.854 169.085 122.763 167.505L126.766 165.584L125.753 161.81L121.353 162.219C120.636 160.798 119.647 159.502 118.43 158.411L119.897 154.228L116.52 152.272L113.688 155.671C112.13 155.16 110.504 154.955 108.923 155.046L107.002 151.056L103.226 152.068L103.636 156.478C102.214 157.195 100.918 158.184 99.826 159.4L95.6412 157.934L93.6853 161.31L97.0854 164.14C96.5737 165.709 96.369 167.312 96.46 168.904L92.4685 170.825L93.4806 174.599L97.8928 174.19C98.6092 175.611 99.5872 176.907 100.815 177.998L99.3484 182.181L102.726 184.137L105.557 180.738C107.127 181.249 108.73 181.454 110.322 181.363L112.244 185.353L116.019 184.341L115.61 179.93C117.009 179.226 118.305 178.248 119.397 177.009ZM105.557 175.201C101.691 172.973 100.372 168.028 102.601 164.163C104.83 160.298 109.776 158.979 113.643 161.207C117.509 163.436 118.828 168.381 116.599 172.246C114.37 176.111 109.424 177.43 105.557 175.201Z" fill="#84B5FF"/>
</g>
<g filter="url(#filter3_d_53_824)">
<rect x="6.72583" y="6.00781" width="41.4423" height="40.7278" rx="6" fill="#06B25F"/>
</g>
<path d="M20.8322 33.1067L11.3456 27.9762C10.7326 27.6213 10.426 27.0728 10.426 26.3306C10.426 25.5562 10.7487 25.0077 11.394 24.685L20.8322 19.5061V21.3937C20.8322 21.5228 20.7838 21.7003 20.687 21.9261C20.5902 22.1197 20.445 22.2649 20.2514 22.3617L13.5237 26.0402C13.2655 26.2338 13.2655 26.4274 13.5237 26.621L20.8322 30.5415V33.1067Z" fill="white"/>
<path d="M28.9127 17.9573H30.8003L26.1054 34.0263C25.9764 34.4458 25.686 34.6555 25.2342 34.6555H24.0242L28.9127 17.9573Z" fill="white"/>
<path d="M33.8471 19.5061L43.2853 24.685C43.9629 25.0399 44.3017 25.5885 44.3017 26.3306C44.3017 27.0728 43.9629 27.6052 43.2853 27.9278L33.8471 33.1067V31.2191C33.8471 31.1223 33.8794 30.9609 33.9439 30.7351C34.0407 30.5092 34.1859 30.3479 34.3795 30.2511L41.1556 26.621C41.4138 26.4274 41.4138 26.2338 41.1556 26.0402L33.8471 22.0713V19.5061Z" fill="white"/>
<defs>
<filter id="filter0_d_53_824" x="156.489" y="58.5989" width="97.7394" height="55.8303" filterUnits="userSpaceOnUse" color-interpolation-filters="sRGB">
<feFlood flood-opacity="0" result="BackgroundImageFix"/>
<feColorMatrix in="SourceAlpha" type="matrix" values="0 0 0 0 0 0 0 0 0 0 0 0 0 0 0 0 0 0 127 0" result="hardAlpha"/>
<feMorphology radius="3" operator="dilate" in="SourceAlpha" result="effect1_dropShadow_53_824"/>
<feOffset dx="5" dy="5"/>
<feGaussianBlur stdDeviation="4"/>
<feColorMatrix type="matrix" values="0 0 0 0 0 0 0 0 0 0 0 0 0 0 0 0 0 0 0.2 0"/>
<feBlend mode="normal" in2="BackgroundImageFix" result="effect1_dropShadow_53_824"/>
<feBlend mode="normal" in="SourceGraphic" in2="effect1_dropShadow_53_824" result="shape"/>
</filter>
<filter id="filter1_d_53_824" x="19.5907" y="90.7522" width="83.5925" height="83.5925" filterUnits="userSpaceOnUse" color-interpolation-filters="sRGB">
<feFlood flood-opacity="0" result="BackgroundImageFix"/>
<feColorMatrix in="SourceAlpha" type="matrix" values="0 0 0 0 0 0 0 0 0 0 0 0 0 0 0 0 0 0 127 0" result="hardAlpha"/>
<feOffset dy="4"/>
<feGaussianBlur stdDeviation="5"/>
<feColorMatrix type="matrix" values="0 0 0 0 0.0885677 0 0 0 0 0.0395834 0 0 0 0 0.395833 0 0 0 0.25 0"/>
<feBlend mode="normal" in2="BackgroundImageFix" result="effect1_dropShadow_53_824"/>
<feBlend mode="normal" in="SourceGraphic" in2="effect1_dropShadow_53_824" result="shape"/>
</filter>
<filter id="filter2_d_53_824" x="82.4685" y="145.056" width="54.2971" height="54.2971" filterUnits="userSpaceOnUse" color-interpolation-filters="sRGB">
<feFlood flood-opacity="0" result="BackgroundImageFix"/>
<feColorMatrix in="SourceAlpha" type="matrix" values="0 0 0 0 0 0 0 0 0 0 0 0 0 0 0 0 0 0 127 0" result="hardAlpha"/>
<feOffset dy="4"/>
<feGaussianBlur stdDeviation="5"/>
<feColorMatrix type="matrix" values="0 0 0 0 0.0885677 0 0 0 0 0.0395834 0 0 0 0 0.395833 0 0 0 0.25 0"/>
<feBlend mode="normal" in2="BackgroundImageFix" result="effect1_dropShadow_53_824"/>
<feBlend mode="normal" in="SourceGraphic" in2="effect1_dropShadow_53_824" result="shape"/>
</filter>
<filter id="filter3_d_53_824" x="0.72583" y="0.0078125" width="63.4423" height="62.7278" filterUnits="userSpaceOnUse" color-interpolation-filters="sRGB">
<feFlood flood-opacity="0" result="BackgroundImageFix"/>
<feColorMatrix in="SourceAlpha" type="matrix" values="0 0 0 0 0 0 0 0 0 0 0 0 0 0 0 0 0 0 127 0" result="hardAlpha"/>
<feMorphology radius="3" operator="dilate" in="SourceAlpha" result="effect1_dropShadow_53_824"/>
<feOffset dx="5" dy="5"/>
<feGaussianBlur stdDeviation="4"/>
<feColorMatrix type="matrix" values="0 0 0 0 0 0 0 0 0 0 0 0 0 0 0 0 0 0 0.2 0"/>
<feBlend mode="normal" in2="BackgroundImageFix" result="effect1_dropShadow_53_824"/>
<feBlend mode="normal" in="SourceGraphic" in2="effect1_dropShadow_53_824" result="shape"/>
</filter>
</defs>
</svg>
