<svg width="52" height="53" viewBox="0 0 52 53" fill="none" xmlns="http://www.w3.org/2000/svg">
<g clip-path="url(#clip0_217_1518)">
<path d="M38.0892 0.553955H14.4168C12.6536 0.553955 11.2192 2.0097 11.2192 3.79844V5.939H41.2857V3.79844C41.2858 2.0097 39.8516 0.553955 38.0892 0.553955ZM30.6744 4.69591H21.8318C21.3438 4.69591 20.9476 4.29382 20.9476 3.79844C20.9476 3.30306 21.3438 2.90097 21.8318 2.90097H30.6744C31.1624 2.90097 31.5586 3.30306 31.5586 3.79844C31.5586 4.29382 31.1624 4.69591 30.6744 4.69591Z" fill="#276ED8"/>
<path d="M26.871 46.1399H24.7354C24.3758 46.1399 24.0825 46.4323 24.0825 46.7927V47.2082C24.0825 47.5677 24.3749 47.8601 24.7354 47.8601H26.871C27.2305 47.8601 27.5229 47.5677 27.5229 47.2082V46.7927C27.5238 46.4323 27.2305 46.1399 26.871 46.1399Z" fill="#276ED8"/>
<path d="M41.2852 7.2854H11.2188V41.8394H41.2852V7.2854Z" fill="#276ED8"/>
<path d="M32.7927 25.9516L35.0028 25.5359V23.5544L32.7927 23.1733C32.6229 22.3592 32.3007 21.5971 31.8573 20.9215L33.1252 19.0612L31.7222 17.6582L29.8896 18.9538C29.2141 18.5104 28.4554 18.1917 27.6379 18.022L27.2221 15.8118H25.2406L24.8595 18.022C24.0454 18.1917 23.2833 18.5139 22.6078 18.9573L20.7509 17.6894L19.3479 19.0924L20.6435 20.925C20.2001 21.6005 19.8814 22.3627 19.7117 23.1768L17.5015 23.5925V25.574L19.7117 25.9551C19.8814 26.7727 20.2036 27.5313 20.647 28.2069L19.3791 30.0637L20.7821 31.4667L22.6182 30.1711C23.2937 30.6145 24.0558 30.9367 24.8699 31.103L25.2856 33.3132H27.2672L27.6482 31.103C28.4658 30.9332 29.2245 30.611 29.9 30.1676L31.7568 31.4355L33.1599 30.0325L31.8642 28.1999C32.3042 27.5279 32.6229 26.7692 32.7927 25.9516ZM26.2522 28.6676C23.9865 28.6676 22.1505 26.8281 22.1505 24.5659C22.1505 22.3038 23.9865 20.4643 26.2522 20.4643C28.5178 20.4643 30.3538 22.3003 30.3538 24.5659C30.3538 26.8315 28.5178 28.6676 26.2522 28.6676Z" fill="#66D6A0"/>
<path d="M11.2188 43.6343V49.0783C11.2188 50.7776 12.653 52.1606 14.4154 52.1606H38.0886C39.8509 52.1606 41.2852 50.7776 41.2852 49.0783V43.6343H11.2188Z" fill="#276ED8"/>
</g>
<defs>
<clipPath id="clip0_217_1518">
<rect width="51.6066" height="51.6066" fill="white" transform="translate(0 0.553955)"/>
</clipPath>
</defs>
</svg>
