<svg width="58" height="58" viewBox="0 0 58 58" fill="none" xmlns="http://www.w3.org/2000/svg">
<g clip-path="url(#clip0_217_2500)">
<path d="M50.2289 23.6271C49.4092 23.1691 48.3737 23.4545 47.9124 24.2676C47.4495 25.084 47.7365 26.1211 48.5529 26.5841C52.3812 28.7529 54.6019 31.4212 54.6019 34.0978C54.6019 38.7491 48.2079 43.1447 38.8588 45.0381C37.9378 45.2256 37.3438 46.1217 37.5296 47.0411C37.7187 47.9694 38.627 48.5566 39.5326 48.3702C50.6819 46.1118 58.0004 40.5097 58.0004 34.0978C58.0004 30.1435 55.1673 26.4248 50.2289 23.6271Z" fill="#06B25F"/>
<path d="M20.5039 48.7239V54.4882C20.5039 55.1154 20.8491 55.6912 21.4017 55.9867C21.9465 56.2789 22.6189 56.2532 23.1457 55.902L33.3411 49.1052C33.814 48.7899 34.0978 48.2588 34.0978 47.6914C34.0978 47.124 33.814 46.5929 33.3411 46.2777L23.1457 39.4808C22.6231 39.1356 21.951 39.0991 21.4017 39.3962C20.8491 39.6914 20.5039 40.2672 20.5039 40.8944V45.2466C10.5689 43.5445 3.39844 39.0239 3.39844 34.0975C3.39844 31.4209 5.6192 28.7526 9.44732 26.5838C10.2637 26.1208 10.5508 25.0838 10.0878 24.2673C9.62653 23.4542 8.59272 23.1689 7.77132 23.6269C2.83305 26.4246 0 30.1432 0 34.0975C0 41.0199 8.25073 46.7925 20.5039 48.7239Z" fill="#06B25F"/>
<path d="M42.5933 8.40861L29.7596 1.99168C29.2817 1.75277 28.7175 1.75277 28.2396 1.99168L15.4053 8.40895L28.9996 15.2055L42.5933 8.40861Z" fill="#276ED8"/>
<path d="M44.293 27.3009V11.3591L30.6992 18.156C30.6992 18.5049 30.6992 35.4971 30.6992 35.1482L43.3538 28.821C43.9296 28.5321 44.293 27.9447 44.293 27.3009Z" fill="#276ED8"/>
<path d="M13.707 27.3008C13.707 27.9447 14.0704 28.532 14.6462 28.8208L27.3008 35.1481C27.3008 33.9553 27.3008 17.8068 27.3008 18.1559L13.707 11.3596V27.3008Z" fill="#276ED8"/>
</g>
<defs>
<clipPath id="clip0_217_2500">
<rect width="58" height="58" fill="white"/>
</clipPath>
</defs>
</svg>
