<svg width="50" height="50" viewBox="0 0 50 50" fill="none" xmlns="http://www.w3.org/2000/svg">
<g clip-path="url(#clip0_217_2507)">
<ellipse cx="24.9998" cy="35.4651" rx="10.4651" ry="10.4651" fill="#DFECFC"/>
<path d="M24.9996 28.1443C21.0171 28.1443 17.7769 31.3845 17.7769 35.367C17.7769 39.3496 21.0171 42.5898 24.9996 42.5898C28.9821 42.5898 32.2224 39.3496 32.2224 35.367C32.2224 31.3845 28.9821 28.1443 24.9996 28.1443ZM22.3141 39.9286V30.8054L29.8477 35.367L22.3141 39.9286Z" fill="#06B25F"/>
<path d="M50 11.068C49.9977 9.40254 49.1489 6.95236 45.1237 4.72725C42.3374 3.18687 38.4952 2.01271 34.0126 1.33179L32.3276 1.07544V18.9103C36.4082 18.4563 40.139 17.6224 43.2133 16.4548C47.2229 14.9316 49.7139 12.943 50 11.068Z" fill="#276ED8"/>
<path d="M25 22.2366C17.7501 22.2366 10.9123 21.1559 5.74645 19.1936C3.3596 18.2868 1.43089 17.2206 0 16.0381V38.4265C0 41.466 2.78358 44.1974 7.83804 46.1173C12.4454 47.8675 18.5402 48.8311 25 48.8311C31.4597 48.8311 37.5549 47.8675 42.1619 46.1173C47.2163 44.1974 49.9999 41.466 49.9999 38.4265V16.0381C48.569 17.2206 46.6403 18.2868 44.2535 19.1936C39.0876 21.1559 32.2498 22.2366 25 22.2366ZM25 45.5199C19.4019 45.5199 14.8475 40.9652 14.8475 35.3671C14.8475 29.7687 19.4019 25.2143 25 25.2143C30.5984 25.2143 35.1527 29.7687 35.1527 35.3671C35.1527 40.9652 30.5984 45.5199 25 45.5199Z" fill="#276ED8"/>
<path d="M6.78673 16.4547C9.85947 17.6216 13.588 18.4555 17.6666 18.9095V1.07422L15.9817 1.33018C11.4994 2.01073 7.65839 3.18527 4.87289 4.72641C0.850677 6.9519 0.00228882 9.40208 0 11.068C0.286484 12.9429 2.7771 14.9315 6.78673 16.4547Z" fill="#276ED8"/>
</g>
<defs>
<clipPath id="clip0_217_2507">
<rect width="50" height="50" fill="white"/>
</clipPath>
</defs>
</svg>
