<svg width="52" height="52" viewBox="0 0 52 52" fill="none" xmlns="http://www.w3.org/2000/svg">
<g clip-path="url(#clip0_217_2495)">
<path d="M28.7702 24.9267C29.3693 24.6203 30.0367 24.4583 30.729 24.4583C31.8764 24.4583 32.9552 24.9038 33.7684 25.7127L35.5189 23.9623C39.8509 25.4808 44.8613 24.5087 48.3245 21.0458C51.2384 18.1318 52.3875 14.1227 51.7741 10.3436C51.7065 9.92744 51.4119 9.58418 51.0108 9.45468C50.6097 9.325 50.1694 9.43038 49.8714 9.72858L47.2721 12.3278C45.1555 14.4445 41.7234 14.4445 39.6067 12.3278C37.4898 10.2111 37.4898 6.77901 39.6067 4.66232L42.2059 2.06311C42.5041 1.7649 42.6103 1.3246 42.4805 0.923334C42.3508 0.521886 42.007 0.22794 41.5907 0.160352C37.8118 -0.453084 33.8024 0.696089 30.8887 3.61C27.3741 7.12458 26.4282 12.2322 28.0447 16.6077L24.248 20.4043L28.7702 24.9267Z" fill="#276ED8"/>
<path d="M21.8518 31.8064L17.3486 27.3032L1.60204 43.0496C-0.445471 45.0971 -0.445471 48.4168 1.60204 50.4643C3.64954 52.5118 6.96916 52.5118 9.01667 50.4643L22.5912 36.8899C21.2221 35.5135 20.9753 33.4355 21.8518 31.8064Z" fill="#276ED8"/>
<path d="M31.895 27.6024C31.573 27.2804 31.1508 27.1193 30.7288 27.1193C30.3068 27.1193 29.8846 27.2804 29.5626 27.6024L28.6226 28.5424L11.8778 11.7976L12.6604 11.0149C13.3736 10.302 13.2851 9.11927 12.4722 8.52074L5.64034 3.48924C4.9838 3.00584 4.07269 3.07449 3.49615 3.65103L0.595366 6.55199C0.0188277 7.12853 -0.0498247 8.03981 0.43358 8.69618L5.46489 15.5281C6.06343 16.3407 7.24542 16.4301 7.95909 15.7163L8.74176 14.9334L25.4865 31.6782L24.4804 32.6844C23.8362 33.3285 23.8362 34.3727 24.4804 35.0168L39.9278 50.4643C41.9754 52.5118 45.295 52.5118 47.3425 50.4643C49.39 48.4168 49.39 45.0972 47.3425 43.0497L31.895 27.6024Z" fill="#06B25F"/>
</g>
<defs>
<clipPath id="clip0_217_2495">
<rect width="52" height="52" fill="white"/>
</clipPath>
</defs>
</svg>
