<svg width="50" height="50" viewBox="0 0 50 50" fill="none" xmlns="http://www.w3.org/2000/svg">
<g clip-path="url(#clip0_217_2489)">
<path d="M18.7497 0C13.0059 0 8.33301 4.67292 8.33301 10.4167C8.33301 16.1604 13.0059 20.8333 18.7497 20.8333C24.4934 20.8333 29.1663 16.1604 29.1663 10.4167C29.1663 4.67292 24.4934 0 18.7497 0Z" fill="#276ED8"/>
<path d="M34.5455 49.9584C33.7038 49.7647 33.1809 48.9272 33.3726 48.0855L36.4976 34.5438C36.6934 33.7042 37.533 33.173 38.3705 33.373C39.2122 33.5667 39.7351 34.4042 39.5434 35.2459L36.4184 48.7876C36.2205 49.6501 35.3559 50.1563 34.5455 49.9584Z" fill="#06B25F"/>
<path d="M43.2294 47.9168C42.8023 47.9168 42.3773 47.7418 42.0669 47.4001C41.4898 46.7564 41.5419 45.771 42.1836 45.1918L46.1023 41.6668L42.1836 38.1418C41.5419 37.5647 41.4898 36.5772 42.0669 35.9335C42.6461 35.2918 43.6336 35.2418 44.2752 35.8168L49.4836 40.5043C49.8127 40.8022 50.0002 41.2231 50.0002 41.6668C50.0002 42.1106 49.8127 42.5314 49.4836 42.8293L44.2752 47.5168C43.9752 47.7856 43.6023 47.9168 43.2294 47.9168Z" fill="#06B25F"/>
<path d="M29.6878 47.9166C29.3149 47.9166 28.942 47.7853 28.642 47.5166L23.4337 42.8291C23.1045 42.5312 22.917 42.1103 22.917 41.6666C22.917 41.2228 23.1045 40.802 23.4337 40.5041L28.642 35.8166C29.2837 35.2416 30.2712 35.2937 30.8503 35.9332C31.4274 36.577 31.3753 37.5624 30.7337 38.1416L26.8149 41.6666L30.7337 45.1916C31.3753 45.7687 31.4274 46.7562 30.8503 47.3999C30.5399 47.7416 30.1149 47.9166 29.6878 47.9166Z" fill="#06B25F"/>
<path d="M19.2708 41.6667C19.2708 40.05 19.9604 38.4979 21.1604 37.4146L26.375 32.7208C27.4333 31.7708 28.7917 31.2521 30.2062 31.2521C31.3792 31.2521 32.5125 31.6229 33.4646 32.2792C34.1729 30.8938 35.4062 29.8687 36.8792 29.4208C35.1021 26.7583 32.0771 25 28.6458 25H9.89583C4.43958 25 0 29.4396 0 34.8958V43.2292C0 44.0917 0.7 44.7917 1.5625 44.7917H20.225C19.6208 43.8667 19.2708 42.7875 19.2708 41.6667Z" fill="#276ED8"/>
</g>
<defs>
<clipPath id="clip0_217_2489">
<rect width="50" height="50" fill="white"/>
</clipPath>
</defs>
</svg>
