<svg width="65" height="39" viewBox="0 0 65 39" fill="none" xmlns="http://www.w3.org/2000/svg">
<path d="M49.8201 7.52637H40.9665V16.3304H24.6166V7.52637H15.759C12.3638 7.52637 9.52892 9.9666 8.9126 13.1849V32.5249C9.52892 35.7432 12.3638 38.1829 15.759 38.1829H20.3569L22.1847 27.7634H43.3983L45.2262 38.1829H49.8201C53.2153 38.1829 56.0502 35.7432 56.6665 32.5249V13.1849C56.0507 9.9666 53.2153 7.52637 49.8201 7.52637Z" fill="#276ED8"/>
<path d="M28.3892 0.232422H37.1932V12.557H28.3892V0.232422Z" fill="#06B25F"/>
<path d="M0.579102 13.479H5.13962V32.2298H0.579102V13.479Z" fill="#276ED8"/>
<path d="M60.4399 13.479H64.9995V32.2298H60.4399V13.479Z" fill="#276ED8"/>
<path d="M25.3543 31.5356L24.188 38.1825H41.3964L40.2301 31.5356H25.3543Z" fill="#06B25F"/>
</svg>
