<svg width="51" height="51" viewBox="0 0 51 51" fill="none" xmlns="http://www.w3.org/2000/svg">
<path d="M36.097 17.5906C31.6472 17.5906 29.8905 20.6586 28.958 22.8811C28.2403 21.4271 26.7424 20.4253 25.0151 20.4253C23.2877 20.4253 21.7898 21.4271 21.0721 22.8811C20.1396 20.6586 18.3839 17.5906 13.9332 17.5906C3.67053 17.5906 0.0273438 38.3131 0.0273438 42.5031C0.0273438 48.0494 3.13933 50.017 5.80411 50.017C10.4921 50.017 15.5336 42.0041 17.966 38.0016H32.0642C34.4946 42.0012 39.5546 50.017 44.226 50.017C46.8908 50.017 50.0028 48.0494 50.0028 42.5031C50.0028 40.7416 47.257 17.5906 36.097 17.5906Z" fill="#276ED8"/>
<path d="M14.7499 30.1686H16.2146C17.0231 30.1686 17.6793 29.5124 17.6793 28.7039C17.6793 27.8954 17.0231 27.2392 16.2146 27.2392H14.7499V25.7745C14.7499 24.966 14.0937 24.3098 13.2852 24.3098C12.4767 24.3098 11.8205 24.966 11.8205 25.7745V27.2392H10.3558C9.5473 27.2392 8.89111 27.8954 8.89111 28.7039C8.89111 29.5124 9.5473 30.1686 10.3558 30.1686H11.8205V31.6333C11.8205 32.4418 12.4767 33.098 13.2852 33.098C14.0937 33.098 14.7499 32.4418 14.7499 31.6333V30.1686Z" fill="#66D6A0"/>
<path d="M22.0734 33.098H27.9322C28.7407 33.098 29.3969 32.4418 29.3969 31.6333C29.3969 30.8248 28.7407 30.1686 27.9322 30.1686H22.0734C21.2649 30.1686 20.6087 30.8248 20.6087 31.6333C20.6087 32.4418 21.2649 33.098 22.0734 33.098Z" fill="#66D6A0"/>
<path d="M38.185 25.7745C38.185 24.966 37.5289 24.3098 36.7203 24.3098C35.9118 24.3098 35.2556 24.966 35.2556 25.7745C35.2556 26.583 35.9118 27.2392 36.7203 27.2392C37.5289 27.2392 38.185 26.583 38.185 25.7745Z" fill="#66D6A0"/>
<path d="M32.3263 28.7039C32.3263 29.5124 32.9824 30.1686 33.7909 30.1686C34.5995 30.1686 35.2556 29.5124 35.2556 28.7039C35.2556 27.8954 34.5995 27.2392 33.7909 27.2392C32.9824 27.2392 32.3263 27.8954 32.3263 28.7039Z" fill="#66D6A0"/>
<path d="M35.2556 31.6333C35.2556 32.4418 35.9118 33.098 36.7203 33.098C37.5289 33.098 38.185 32.4418 38.185 31.6333C38.185 30.8248 37.5289 30.1686 36.7203 30.1686C35.9118 30.1686 35.2556 30.8248 35.2556 31.6333Z" fill="#66D6A0"/>
<path d="M38.185 28.7039C38.185 29.5124 38.8412 30.1686 39.6497 30.1686C40.4582 30.1686 41.1144 29.5124 41.1144 28.7039C41.1144 27.8954 40.4582 27.2392 39.6497 27.2392C38.8412 27.2392 38.185 27.8954 38.185 28.7039Z" fill="#66D6A0"/>
<path d="M26.5986 17.667C26.0859 17.5547 25.5557 17.4961 25.0147 17.4961C24.5509 17.4961 24.0959 17.539 23.6535 17.6211C23.5217 15.7384 23.1077 13.7689 22.101 12.7622C19.5121 10.1732 13.0849 11.9848 9.35908 11.9283C3.09917 11.8337 -0.0667231 8.29983 0.0172528 3.83368C0.034048 2.93953 0.0855076 2.00798 0.373662 1.05925C0.607037 0.283939 1.42434 -0.153517 2.19867 0.0798582C2.97106 0.313233 3.40949 1.12663 3.18002 1.89901C1.78768 6.65547 4.86598 10.2194 13.0355 8.73133C16.4137 8.09214 21.6488 8.16684 24.172 10.6901C25.5977 12.1158 26.414 14.4632 26.5986 17.667Z" fill="#276ED8"/>
</svg>
